<mxfile host="Electron" agent="Mozilla/5.0 (Windows NT 10.0; Win64; x64) AppleWebKit/537.36 (KHTML, like Gecko) draw.io/26.0.4 Chrome/128.0.6613.186 Electron/32.2.5 Safari/537.36" version="26.0.4">
  <diagram name="페이지-1" id="tkAG33QHUV7C6c_4L4uz">
    <mxGraphModel dx="4809" dy="888" grid="1" gridSize="10" guides="1" tooltips="1" connect="1" arrows="1" fold="1" page="1" pageScale="1" pageWidth="3300" pageHeight="4681" math="0" shadow="0">
      <root>
        <mxCell id="0" />
        <mxCell id="1" parent="0" />
        <mxCell id="kvejRUVpXeuSzn0Qw_fY-19" value="" style="edgeStyle=orthogonalEdgeStyle;rounded=0;orthogonalLoop=1;jettySize=auto;html=1;endArrow=none;endFill=0;" edge="1" parent="1" source="kvejRUVpXeuSzn0Qw_fY-1" target="kvejRUVpXeuSzn0Qw_fY-15">
          <mxGeometry relative="1" as="geometry" />
        </mxCell>
        <mxCell id="kvejRUVpXeuSzn0Qw_fY-1" value="Person" style="swimlane;fontStyle=1;align=center;verticalAlign=top;childLayout=stackLayout;horizontal=1;startSize=26;horizontalStack=0;resizeParent=1;resizeParentMax=0;resizeLast=0;collapsible=1;marginBottom=0;whiteSpace=wrap;html=1;" vertex="1" parent="1">
          <mxGeometry x="610" y="360" width="160" height="86" as="geometry" />
        </mxCell>
        <mxCell id="kvejRUVpXeuSzn0Qw_fY-2" value="+ myCar: Car" style="text;strokeColor=none;fillColor=none;align=left;verticalAlign=top;spacingLeft=4;spacingRight=4;overflow=hidden;rotatable=0;points=[[0,0.5],[1,0.5]];portConstraint=eastwest;whiteSpace=wrap;html=1;" vertex="1" parent="kvejRUVpXeuSzn0Qw_fY-1">
          <mxGeometry y="26" width="160" height="26" as="geometry" />
        </mxCell>
        <mxCell id="kvejRUVpXeuSzn0Qw_fY-3" value="" style="line;strokeWidth=1;fillColor=none;align=left;verticalAlign=middle;spacingTop=-1;spacingLeft=3;spacingRight=3;rotatable=0;labelPosition=right;points=[];portConstraint=eastwest;strokeColor=inherit;" vertex="1" parent="kvejRUVpXeuSzn0Qw_fY-1">
          <mxGeometry y="52" width="160" height="8" as="geometry" />
        </mxCell>
        <mxCell id="kvejRUVpXeuSzn0Qw_fY-4" value="+ setMyCar(Car car)" style="text;strokeColor=none;fillColor=none;align=left;verticalAlign=top;spacingLeft=4;spacingRight=4;overflow=hidden;rotatable=0;points=[[0,0.5],[1,0.5]];portConstraint=eastwest;whiteSpace=wrap;html=1;" vertex="1" parent="kvejRUVpXeuSzn0Qw_fY-1">
          <mxGeometry y="60" width="160" height="26" as="geometry" />
        </mxCell>
        <mxCell id="kvejRUVpXeuSzn0Qw_fY-9" value="&lt;span style=&quot;&quot;&gt;[연관]사람이 자동차를 소유하다&amp;nbsp;&lt;/span&gt;&lt;div style=&quot;&quot;&gt;(연관된 클래스를&amp;nbsp;&lt;font style=&quot;color: rgb(255, 51, 51);&quot;&gt;멤버로 두어 사용함 - 지속적 관계형성&lt;/font&gt;)&lt;/div&gt;" style="text;html=1;align=left;verticalAlign=middle;resizable=0;points=[];autosize=1;strokeColor=none;fillColor=none;" vertex="1" parent="1">
          <mxGeometry x="610" y="310" width="320" height="40" as="geometry" />
        </mxCell>
        <mxCell id="kvejRUVpXeuSzn0Qw_fY-15" value="Car" style="swimlane;fontStyle=1;align=center;verticalAlign=top;childLayout=stackLayout;horizontal=1;startSize=26;horizontalStack=0;resizeParent=1;resizeParentMax=0;resizeLast=0;collapsible=1;marginBottom=0;whiteSpace=wrap;html=1;" vertex="1" parent="1">
          <mxGeometry x="969" y="360" width="160" height="86" as="geometry" />
        </mxCell>
        <mxCell id="kvejRUVpXeuSzn0Qw_fY-16" value="+ field: type" style="text;strokeColor=none;fillColor=none;align=left;verticalAlign=top;spacingLeft=4;spacingRight=4;overflow=hidden;rotatable=0;points=[[0,0.5],[1,0.5]];portConstraint=eastwest;whiteSpace=wrap;html=1;" vertex="1" parent="kvejRUVpXeuSzn0Qw_fY-15">
          <mxGeometry y="26" width="160" height="26" as="geometry" />
        </mxCell>
        <mxCell id="kvejRUVpXeuSzn0Qw_fY-17" value="" style="line;strokeWidth=1;fillColor=none;align=left;verticalAlign=middle;spacingTop=-1;spacingLeft=3;spacingRight=3;rotatable=0;labelPosition=right;points=[];portConstraint=eastwest;strokeColor=inherit;" vertex="1" parent="kvejRUVpXeuSzn0Qw_fY-15">
          <mxGeometry y="52" width="160" height="8" as="geometry" />
        </mxCell>
        <mxCell id="kvejRUVpXeuSzn0Qw_fY-18" value="+ method(type): type" style="text;strokeColor=none;fillColor=none;align=left;verticalAlign=top;spacingLeft=4;spacingRight=4;overflow=hidden;rotatable=0;points=[[0,0.5],[1,0.5]];portConstraint=eastwest;whiteSpace=wrap;html=1;" vertex="1" parent="kvejRUVpXeuSzn0Qw_fY-15">
          <mxGeometry y="60" width="160" height="26" as="geometry" />
        </mxCell>
        <mxCell id="kvejRUVpXeuSzn0Qw_fY-20" value="소유" style="text;html=1;align=center;verticalAlign=middle;resizable=0;points=[];autosize=1;strokeColor=none;fillColor=none;" vertex="1" parent="1">
          <mxGeometry x="840" y="360" width="50" height="30" as="geometry" />
        </mxCell>
        <mxCell id="kvejRUVpXeuSzn0Qw_fY-21" value="소유자" style="text;html=1;align=center;verticalAlign=middle;resizable=0;points=[];autosize=1;strokeColor=none;fillColor=none;" vertex="1" parent="1">
          <mxGeometry x="760" y="378" width="60" height="30" as="geometry" />
        </mxCell>
        <mxCell id="kvejRUVpXeuSzn0Qw_fY-22" value="소유물" style="text;html=1;align=center;verticalAlign=middle;resizable=0;points=[];autosize=1;strokeColor=none;fillColor=none;" vertex="1" parent="1">
          <mxGeometry x="900" y="378" width="60" height="30" as="geometry" />
        </mxCell>
        <mxCell id="kvejRUVpXeuSzn0Qw_fY-23" value="0...*" style="text;html=1;align=center;verticalAlign=middle;resizable=0;points=[];autosize=1;strokeColor=none;fillColor=none;" vertex="1" parent="1">
          <mxGeometry x="769" y="400" width="40" height="30" as="geometry" />
        </mxCell>
        <mxCell id="kvejRUVpXeuSzn0Qw_fY-24" value="0.1" style="text;html=1;align=center;verticalAlign=middle;resizable=0;points=[];autosize=1;strokeColor=none;fillColor=none;" vertex="1" parent="1">
          <mxGeometry x="910" y="400" width="40" height="30" as="geometry" />
        </mxCell>
        <mxCell id="kvejRUVpXeuSzn0Qw_fY-26" value="[연관]사람이 컴퓨터를 구매하다" style="text;html=1;align=center;verticalAlign=middle;resizable=0;points=[];autosize=1;strokeColor=none;fillColor=none;" vertex="1" parent="1">
          <mxGeometry x="595" y="530" width="190" height="30" as="geometry" />
        </mxCell>
        <mxCell id="kvejRUVpXeuSzn0Qw_fY-36" value="" style="edgeStyle=orthogonalEdgeStyle;rounded=0;orthogonalLoop=1;jettySize=auto;html=1;endArrow=none;endFill=0;" edge="1" parent="1" source="kvejRUVpXeuSzn0Qw_fY-27" target="kvejRUVpXeuSzn0Qw_fY-32">
          <mxGeometry relative="1" as="geometry" />
        </mxCell>
        <mxCell id="kvejRUVpXeuSzn0Qw_fY-27" value="Person" style="swimlane;fontStyle=1;align=center;verticalAlign=top;childLayout=stackLayout;horizontal=1;startSize=26;horizontalStack=0;resizeParent=1;resizeParentMax=0;resizeLast=0;collapsible=1;marginBottom=0;whiteSpace=wrap;html=1;" vertex="1" parent="1">
          <mxGeometry x="609" y="570" width="160" height="86" as="geometry" />
        </mxCell>
        <mxCell id="kvejRUVpXeuSzn0Qw_fY-28" value="+ field: type" style="text;strokeColor=none;fillColor=none;align=left;verticalAlign=top;spacingLeft=4;spacingRight=4;overflow=hidden;rotatable=0;points=[[0,0.5],[1,0.5]];portConstraint=eastwest;whiteSpace=wrap;html=1;" vertex="1" parent="kvejRUVpXeuSzn0Qw_fY-27">
          <mxGeometry y="26" width="160" height="26" as="geometry" />
        </mxCell>
        <mxCell id="kvejRUVpXeuSzn0Qw_fY-29" value="" style="line;strokeWidth=1;fillColor=none;align=left;verticalAlign=middle;spacingTop=-1;spacingLeft=3;spacingRight=3;rotatable=0;labelPosition=right;points=[];portConstraint=eastwest;strokeColor=inherit;" vertex="1" parent="kvejRUVpXeuSzn0Qw_fY-27">
          <mxGeometry y="52" width="160" height="8" as="geometry" />
        </mxCell>
        <mxCell id="kvejRUVpXeuSzn0Qw_fY-30" value="+ method(type): type" style="text;strokeColor=none;fillColor=none;align=left;verticalAlign=top;spacingLeft=4;spacingRight=4;overflow=hidden;rotatable=0;points=[[0,0.5],[1,0.5]];portConstraint=eastwest;whiteSpace=wrap;html=1;" vertex="1" parent="kvejRUVpXeuSzn0Qw_fY-27">
          <mxGeometry y="60" width="160" height="26" as="geometry" />
        </mxCell>
        <mxCell id="kvejRUVpXeuSzn0Qw_fY-32" value="Computer" style="swimlane;fontStyle=1;align=center;verticalAlign=top;childLayout=stackLayout;horizontal=1;startSize=26;horizontalStack=0;resizeParent=1;resizeParentMax=0;resizeLast=0;collapsible=1;marginBottom=0;whiteSpace=wrap;html=1;" vertex="1" parent="1">
          <mxGeometry x="969" y="570" width="160" height="86" as="geometry" />
        </mxCell>
        <mxCell id="kvejRUVpXeuSzn0Qw_fY-33" value="+ field: type" style="text;strokeColor=none;fillColor=none;align=left;verticalAlign=top;spacingLeft=4;spacingRight=4;overflow=hidden;rotatable=0;points=[[0,0.5],[1,0.5]];portConstraint=eastwest;whiteSpace=wrap;html=1;" vertex="1" parent="kvejRUVpXeuSzn0Qw_fY-32">
          <mxGeometry y="26" width="160" height="26" as="geometry" />
        </mxCell>
        <mxCell id="kvejRUVpXeuSzn0Qw_fY-34" value="" style="line;strokeWidth=1;fillColor=none;align=left;verticalAlign=middle;spacingTop=-1;spacingLeft=3;spacingRight=3;rotatable=0;labelPosition=right;points=[];portConstraint=eastwest;strokeColor=inherit;" vertex="1" parent="kvejRUVpXeuSzn0Qw_fY-32">
          <mxGeometry y="52" width="160" height="8" as="geometry" />
        </mxCell>
        <mxCell id="kvejRUVpXeuSzn0Qw_fY-35" value="+ method(type): type" style="text;strokeColor=none;fillColor=none;align=left;verticalAlign=top;spacingLeft=4;spacingRight=4;overflow=hidden;rotatable=0;points=[[0,0.5],[1,0.5]];portConstraint=eastwest;whiteSpace=wrap;html=1;" vertex="1" parent="kvejRUVpXeuSzn0Qw_fY-32">
          <mxGeometry y="60" width="160" height="26" as="geometry" />
        </mxCell>
        <mxCell id="kvejRUVpXeuSzn0Qw_fY-38" value="구매" style="text;html=1;align=center;verticalAlign=middle;resizable=0;points=[];autosize=1;strokeColor=none;fillColor=none;" vertex="1" parent="1">
          <mxGeometry x="840" y="570" width="50" height="30" as="geometry" />
        </mxCell>
        <mxCell id="kvejRUVpXeuSzn0Qw_fY-39" value="구매자" style="text;html=1;align=center;verticalAlign=middle;resizable=0;points=[];autosize=1;strokeColor=none;fillColor=none;" vertex="1" parent="1">
          <mxGeometry x="760" y="588" width="60" height="30" as="geometry" />
        </mxCell>
        <mxCell id="kvejRUVpXeuSzn0Qw_fY-40" value="상품" style="text;html=1;align=center;verticalAlign=middle;resizable=0;points=[];autosize=1;strokeColor=none;fillColor=none;" vertex="1" parent="1">
          <mxGeometry x="905" y="588" width="50" height="30" as="geometry" />
        </mxCell>
        <mxCell id="kvejRUVpXeuSzn0Qw_fY-41" value="0...*" style="text;html=1;align=center;verticalAlign=middle;resizable=0;points=[];autosize=1;strokeColor=none;fillColor=none;" vertex="1" parent="1">
          <mxGeometry x="769" y="610" width="40" height="30" as="geometry" />
        </mxCell>
        <mxCell id="kvejRUVpXeuSzn0Qw_fY-42" value="0,1" style="text;html=1;align=center;verticalAlign=middle;resizable=0;points=[];autosize=1;strokeColor=none;fillColor=none;" vertex="1" parent="1">
          <mxGeometry x="910" y="610" width="40" height="30" as="geometry" />
        </mxCell>
        <mxCell id="kvejRUVpXeuSzn0Qw_fY-43" value="구매자는 상품을 구매를 안할 수도 있고 여러개를 구매할 수 도 있다." style="text;html=1;align=center;verticalAlign=middle;resizable=0;points=[];autosize=1;strokeColor=none;fillColor=none;" vertex="1" parent="1">
          <mxGeometry x="700" y="656" width="380" height="30" as="geometry" />
        </mxCell>
        <mxCell id="kvejRUVpXeuSzn0Qw_fY-44" value="상품 1개당 구매자가 0명 일 수 도 있고 1명 일 수도 있다." style="text;html=1;align=center;verticalAlign=middle;resizable=0;points=[];autosize=1;strokeColor=none;fillColor=none;" vertex="1" parent="1">
          <mxGeometry x="730" y="680" width="320" height="30" as="geometry" />
        </mxCell>
        <mxCell id="kvejRUVpXeuSzn0Qw_fY-45" value="소유자 1명은 자동차를 소유하지 않을 수도, 여러대를 소유 할 수도 있다." style="text;html=1;align=center;verticalAlign=middle;resizable=0;points=[];autosize=1;strokeColor=none;fillColor=none;" vertex="1" parent="1">
          <mxGeometry x="685" y="447" width="410" height="30" as="geometry" />
        </mxCell>
        <mxCell id="kvejRUVpXeuSzn0Qw_fY-46" value="자동차 한대당 소유자가 0 or 1명이다." style="text;html=1;align=center;verticalAlign=middle;resizable=0;points=[];autosize=1;strokeColor=none;fillColor=none;" vertex="1" parent="1">
          <mxGeometry x="780" y="470" width="220" height="30" as="geometry" />
        </mxCell>
        <mxCell id="kvejRUVpXeuSzn0Qw_fY-47" value="[연관]학생이 수업에 수강신청을 하다." style="text;html=1;align=center;verticalAlign=middle;resizable=0;points=[];autosize=1;strokeColor=none;fillColor=none;" vertex="1" parent="1">
          <mxGeometry x="580" y="730" width="220" height="30" as="geometry" />
        </mxCell>
        <mxCell id="kvejRUVpXeuSzn0Qw_fY-48" value="" style="edgeStyle=orthogonalEdgeStyle;rounded=0;orthogonalLoop=1;jettySize=auto;html=1;endArrow=none;endFill=0;" edge="1" source="kvejRUVpXeuSzn0Qw_fY-49" target="kvejRUVpXeuSzn0Qw_fY-53" parent="1">
          <mxGeometry relative="1" as="geometry" />
        </mxCell>
        <mxCell id="kvejRUVpXeuSzn0Qw_fY-49" value="Student" style="swimlane;fontStyle=1;align=center;verticalAlign=top;childLayout=stackLayout;horizontal=1;startSize=26;horizontalStack=0;resizeParent=1;resizeParentMax=0;resizeLast=0;collapsible=1;marginBottom=0;whiteSpace=wrap;html=1;" vertex="1" parent="1">
          <mxGeometry x="609" y="770" width="160" height="86" as="geometry" />
        </mxCell>
        <mxCell id="kvejRUVpXeuSzn0Qw_fY-50" value="+ field: type" style="text;strokeColor=none;fillColor=none;align=left;verticalAlign=top;spacingLeft=4;spacingRight=4;overflow=hidden;rotatable=0;points=[[0,0.5],[1,0.5]];portConstraint=eastwest;whiteSpace=wrap;html=1;" vertex="1" parent="kvejRUVpXeuSzn0Qw_fY-49">
          <mxGeometry y="26" width="160" height="26" as="geometry" />
        </mxCell>
        <mxCell id="kvejRUVpXeuSzn0Qw_fY-51" value="" style="line;strokeWidth=1;fillColor=none;align=left;verticalAlign=middle;spacingTop=-1;spacingLeft=3;spacingRight=3;rotatable=0;labelPosition=right;points=[];portConstraint=eastwest;strokeColor=inherit;" vertex="1" parent="kvejRUVpXeuSzn0Qw_fY-49">
          <mxGeometry y="52" width="160" height="8" as="geometry" />
        </mxCell>
        <mxCell id="kvejRUVpXeuSzn0Qw_fY-52" value="+ method(type): type" style="text;strokeColor=none;fillColor=none;align=left;verticalAlign=top;spacingLeft=4;spacingRight=4;overflow=hidden;rotatable=0;points=[[0,0.5],[1,0.5]];portConstraint=eastwest;whiteSpace=wrap;html=1;" vertex="1" parent="kvejRUVpXeuSzn0Qw_fY-49">
          <mxGeometry y="60" width="160" height="26" as="geometry" />
        </mxCell>
        <mxCell id="kvejRUVpXeuSzn0Qw_fY-53" value="Lecture" style="swimlane;fontStyle=1;align=center;verticalAlign=top;childLayout=stackLayout;horizontal=1;startSize=26;horizontalStack=0;resizeParent=1;resizeParentMax=0;resizeLast=0;collapsible=1;marginBottom=0;whiteSpace=wrap;html=1;" vertex="1" parent="1">
          <mxGeometry x="969" y="770" width="160" height="86" as="geometry" />
        </mxCell>
        <mxCell id="kvejRUVpXeuSzn0Qw_fY-54" value="+ field: type" style="text;strokeColor=none;fillColor=none;align=left;verticalAlign=top;spacingLeft=4;spacingRight=4;overflow=hidden;rotatable=0;points=[[0,0.5],[1,0.5]];portConstraint=eastwest;whiteSpace=wrap;html=1;" vertex="1" parent="kvejRUVpXeuSzn0Qw_fY-53">
          <mxGeometry y="26" width="160" height="26" as="geometry" />
        </mxCell>
        <mxCell id="kvejRUVpXeuSzn0Qw_fY-55" value="" style="line;strokeWidth=1;fillColor=none;align=left;verticalAlign=middle;spacingTop=-1;spacingLeft=3;spacingRight=3;rotatable=0;labelPosition=right;points=[];portConstraint=eastwest;strokeColor=inherit;" vertex="1" parent="kvejRUVpXeuSzn0Qw_fY-53">
          <mxGeometry y="52" width="160" height="8" as="geometry" />
        </mxCell>
        <mxCell id="kvejRUVpXeuSzn0Qw_fY-56" value="+ method(type): type" style="text;strokeColor=none;fillColor=none;align=left;verticalAlign=top;spacingLeft=4;spacingRight=4;overflow=hidden;rotatable=0;points=[[0,0.5],[1,0.5]];portConstraint=eastwest;whiteSpace=wrap;html=1;" vertex="1" parent="kvejRUVpXeuSzn0Qw_fY-53">
          <mxGeometry y="60" width="160" height="26" as="geometry" />
        </mxCell>
        <mxCell id="kvejRUVpXeuSzn0Qw_fY-57" value="수강신청" style="text;html=1;align=center;verticalAlign=middle;resizable=0;points=[];autosize=1;strokeColor=none;fillColor=none;" vertex="1" parent="1">
          <mxGeometry x="830" y="770" width="70" height="30" as="geometry" />
        </mxCell>
        <mxCell id="kvejRUVpXeuSzn0Qw_fY-58" value="수강생" style="text;html=1;align=center;verticalAlign=middle;resizable=0;points=[];autosize=1;strokeColor=none;fillColor=none;" vertex="1" parent="1">
          <mxGeometry x="760" y="788" width="60" height="30" as="geometry" />
        </mxCell>
        <mxCell id="kvejRUVpXeuSzn0Qw_fY-59" value="수업" style="text;html=1;align=center;verticalAlign=middle;resizable=0;points=[];autosize=1;strokeColor=none;fillColor=none;" vertex="1" parent="1">
          <mxGeometry x="905" y="788" width="50" height="30" as="geometry" />
        </mxCell>
        <mxCell id="kvejRUVpXeuSzn0Qw_fY-60" value="0...*" style="text;html=1;align=center;verticalAlign=middle;resizable=0;points=[];autosize=1;strokeColor=none;fillColor=none;" vertex="1" parent="1">
          <mxGeometry x="769" y="810" width="40" height="30" as="geometry" />
        </mxCell>
        <mxCell id="kvejRUVpXeuSzn0Qw_fY-61" value="0...*" style="text;html=1;align=center;verticalAlign=middle;resizable=0;points=[];autosize=1;strokeColor=none;fillColor=none;" vertex="1" parent="1">
          <mxGeometry x="910" y="810" width="40" height="30" as="geometry" />
        </mxCell>
        <mxCell id="kvejRUVpXeuSzn0Qw_fY-62" value="수강생 한명당 0 or 여러 수업을 수강 신청할 수 있다.&amp;nbsp;" style="text;html=1;align=center;verticalAlign=middle;resizable=0;points=[];autosize=1;strokeColor=none;fillColor=none;" vertex="1" parent="1">
          <mxGeometry x="735" y="856" width="310" height="30" as="geometry" />
        </mxCell>
        <mxCell id="kvejRUVpXeuSzn0Qw_fY-63" value="수업 한개당&amp;nbsp; 0 or 여러 수강생을 가질 수 있다." style="text;html=1;align=center;verticalAlign=middle;resizable=0;points=[];autosize=1;strokeColor=none;fillColor=none;" vertex="1" parent="1">
          <mxGeometry x="755" y="880" width="270" height="30" as="geometry" />
        </mxCell>
        <mxCell id="kvejRUVpXeuSzn0Qw_fY-72" value="" style="edgeStyle=orthogonalEdgeStyle;rounded=0;orthogonalLoop=1;jettySize=auto;html=1;" edge="1" parent="1" source="kvejRUVpXeuSzn0Qw_fY-64" target="kvejRUVpXeuSzn0Qw_fY-68">
          <mxGeometry relative="1" as="geometry" />
        </mxCell>
        <mxCell id="kvejRUVpXeuSzn0Qw_fY-64" value="Student" style="swimlane;fontStyle=1;align=center;verticalAlign=top;childLayout=stackLayout;horizontal=1;startSize=26;horizontalStack=0;resizeParent=1;resizeParentMax=0;resizeLast=0;collapsible=1;marginBottom=0;whiteSpace=wrap;html=1;" vertex="1" parent="1">
          <mxGeometry x="609" y="950" width="160" height="86" as="geometry" />
        </mxCell>
        <mxCell id="kvejRUVpXeuSzn0Qw_fY-65" value="+ field: type" style="text;strokeColor=none;fillColor=none;align=left;verticalAlign=top;spacingLeft=4;spacingRight=4;overflow=hidden;rotatable=0;points=[[0,0.5],[1,0.5]];portConstraint=eastwest;whiteSpace=wrap;html=1;" vertex="1" parent="kvejRUVpXeuSzn0Qw_fY-64">
          <mxGeometry y="26" width="160" height="26" as="geometry" />
        </mxCell>
        <mxCell id="kvejRUVpXeuSzn0Qw_fY-66" value="" style="line;strokeWidth=1;fillColor=none;align=left;verticalAlign=middle;spacingTop=-1;spacingLeft=3;spacingRight=3;rotatable=0;labelPosition=right;points=[];portConstraint=eastwest;strokeColor=inherit;" vertex="1" parent="kvejRUVpXeuSzn0Qw_fY-64">
          <mxGeometry y="52" width="160" height="8" as="geometry" />
        </mxCell>
        <mxCell id="kvejRUVpXeuSzn0Qw_fY-67" value="+ method(type): type" style="text;strokeColor=none;fillColor=none;align=left;verticalAlign=top;spacingLeft=4;spacingRight=4;overflow=hidden;rotatable=0;points=[[0,0.5],[1,0.5]];portConstraint=eastwest;whiteSpace=wrap;html=1;" vertex="1" parent="kvejRUVpXeuSzn0Qw_fY-64">
          <mxGeometry y="60" width="160" height="26" as="geometry" />
        </mxCell>
        <mxCell id="kvejRUVpXeuSzn0Qw_fY-77" value="" style="edgeStyle=orthogonalEdgeStyle;rounded=0;orthogonalLoop=1;jettySize=auto;html=1;" edge="1" parent="1" source="kvejRUVpXeuSzn0Qw_fY-68" target="kvejRUVpXeuSzn0Qw_fY-73">
          <mxGeometry relative="1" as="geometry" />
        </mxCell>
        <mxCell id="kvejRUVpXeuSzn0Qw_fY-68" value="Registration" style="swimlane;fontStyle=1;align=center;verticalAlign=top;childLayout=stackLayout;horizontal=1;startSize=26;horizontalStack=0;resizeParent=1;resizeParentMax=0;resizeLast=0;collapsible=1;marginBottom=0;whiteSpace=wrap;html=1;" vertex="1" parent="1">
          <mxGeometry x="849" y="950" width="160" height="86" as="geometry" />
        </mxCell>
        <mxCell id="kvejRUVpXeuSzn0Qw_fY-69" value="+ field: type" style="text;strokeColor=none;fillColor=none;align=left;verticalAlign=top;spacingLeft=4;spacingRight=4;overflow=hidden;rotatable=0;points=[[0,0.5],[1,0.5]];portConstraint=eastwest;whiteSpace=wrap;html=1;" vertex="1" parent="kvejRUVpXeuSzn0Qw_fY-68">
          <mxGeometry y="26" width="160" height="26" as="geometry" />
        </mxCell>
        <mxCell id="kvejRUVpXeuSzn0Qw_fY-70" value="" style="line;strokeWidth=1;fillColor=none;align=left;verticalAlign=middle;spacingTop=-1;spacingLeft=3;spacingRight=3;rotatable=0;labelPosition=right;points=[];portConstraint=eastwest;strokeColor=inherit;" vertex="1" parent="kvejRUVpXeuSzn0Qw_fY-68">
          <mxGeometry y="52" width="160" height="8" as="geometry" />
        </mxCell>
        <mxCell id="kvejRUVpXeuSzn0Qw_fY-71" value="+ method(type): type" style="text;strokeColor=none;fillColor=none;align=left;verticalAlign=top;spacingLeft=4;spacingRight=4;overflow=hidden;rotatable=0;points=[[0,0.5],[1,0.5]];portConstraint=eastwest;whiteSpace=wrap;html=1;" vertex="1" parent="kvejRUVpXeuSzn0Qw_fY-68">
          <mxGeometry y="60" width="160" height="26" as="geometry" />
        </mxCell>
        <mxCell id="kvejRUVpXeuSzn0Qw_fY-73" value="Lecture" style="swimlane;fontStyle=1;align=center;verticalAlign=top;childLayout=stackLayout;horizontal=1;startSize=26;horizontalStack=0;resizeParent=1;resizeParentMax=0;resizeLast=0;collapsible=1;marginBottom=0;whiteSpace=wrap;html=1;" vertex="1" parent="1">
          <mxGeometry x="1089" y="950" width="160" height="86" as="geometry" />
        </mxCell>
        <mxCell id="kvejRUVpXeuSzn0Qw_fY-74" value="+ field: type" style="text;strokeColor=none;fillColor=none;align=left;verticalAlign=top;spacingLeft=4;spacingRight=4;overflow=hidden;rotatable=0;points=[[0,0.5],[1,0.5]];portConstraint=eastwest;whiteSpace=wrap;html=1;" vertex="1" parent="kvejRUVpXeuSzn0Qw_fY-73">
          <mxGeometry y="26" width="160" height="26" as="geometry" />
        </mxCell>
        <mxCell id="kvejRUVpXeuSzn0Qw_fY-75" value="" style="line;strokeWidth=1;fillColor=none;align=left;verticalAlign=middle;spacingTop=-1;spacingLeft=3;spacingRight=3;rotatable=0;labelPosition=right;points=[];portConstraint=eastwest;strokeColor=inherit;" vertex="1" parent="kvejRUVpXeuSzn0Qw_fY-73">
          <mxGeometry y="52" width="160" height="8" as="geometry" />
        </mxCell>
        <mxCell id="kvejRUVpXeuSzn0Qw_fY-76" value="+ method(type): type" style="text;strokeColor=none;fillColor=none;align=left;verticalAlign=top;spacingLeft=4;spacingRight=4;overflow=hidden;rotatable=0;points=[[0,0.5],[1,0.5]];portConstraint=eastwest;whiteSpace=wrap;html=1;" vertex="1" parent="kvejRUVpXeuSzn0Qw_fY-73">
          <mxGeometry y="60" width="160" height="26" as="geometry" />
        </mxCell>
        <mxCell id="kvejRUVpXeuSzn0Qw_fY-78" value="1" style="text;html=1;align=center;verticalAlign=middle;resizable=0;points=[];autosize=1;strokeColor=none;fillColor=none;" vertex="1" parent="1">
          <mxGeometry x="765" y="988" width="30" height="30" as="geometry" />
        </mxCell>
        <mxCell id="kvejRUVpXeuSzn0Qw_fY-80" value="0...&lt;span style=&quot;background-color: transparent; color: light-dark(rgb(0, 0, 0), rgb(255, 255, 255));&quot;&gt;*&lt;/span&gt;" style="text;html=1;align=center;verticalAlign=middle;resizable=0;points=[];autosize=1;strokeColor=none;fillColor=none;" vertex="1" parent="1">
          <mxGeometry x="809" y="988" width="40" height="30" as="geometry" />
        </mxCell>
        <mxCell id="kvejRUVpXeuSzn0Qw_fY-81" value="0...&lt;span style=&quot;background-color: transparent; color: light-dark(rgb(0, 0, 0), rgb(255, 255, 255));&quot;&gt;*&lt;/span&gt;" style="text;html=1;align=center;verticalAlign=middle;resizable=0;points=[];autosize=1;strokeColor=none;fillColor=none;" vertex="1" parent="1">
          <mxGeometry x="1006" y="988" width="40" height="30" as="geometry" />
        </mxCell>
        <mxCell id="kvejRUVpXeuSzn0Qw_fY-82" value="1" style="text;html=1;align=center;verticalAlign=middle;resizable=0;points=[];autosize=1;strokeColor=none;fillColor=none;" vertex="1" parent="1">
          <mxGeometry x="1060" y="988" width="30" height="30" as="geometry" />
        </mxCell>
        <mxCell id="kvejRUVpXeuSzn0Qw_fY-100" value="[연관]고객이 제품을 주문하다" style="text;html=1;align=center;verticalAlign=middle;resizable=0;points=[];autosize=1;strokeColor=none;fillColor=none;" vertex="1" parent="1">
          <mxGeometry x="614" y="1140" width="180" height="30" as="geometry" />
        </mxCell>
        <mxCell id="kvejRUVpXeuSzn0Qw_fY-101" value="" style="edgeStyle=orthogonalEdgeStyle;rounded=0;orthogonalLoop=1;jettySize=auto;html=1;endArrow=none;endFill=0;" edge="1" source="kvejRUVpXeuSzn0Qw_fY-102" target="kvejRUVpXeuSzn0Qw_fY-106" parent="1">
          <mxGeometry relative="1" as="geometry" />
        </mxCell>
        <mxCell id="kvejRUVpXeuSzn0Qw_fY-102" value="Customer" style="swimlane;fontStyle=1;align=center;verticalAlign=top;childLayout=stackLayout;horizontal=1;startSize=26;horizontalStack=0;resizeParent=1;resizeParentMax=0;resizeLast=0;collapsible=1;marginBottom=0;whiteSpace=wrap;html=1;" vertex="1" parent="1">
          <mxGeometry x="623" y="1180" width="160" height="86" as="geometry" />
        </mxCell>
        <mxCell id="kvejRUVpXeuSzn0Qw_fY-103" value="+ field: type" style="text;strokeColor=none;fillColor=none;align=left;verticalAlign=top;spacingLeft=4;spacingRight=4;overflow=hidden;rotatable=0;points=[[0,0.5],[1,0.5]];portConstraint=eastwest;whiteSpace=wrap;html=1;" vertex="1" parent="kvejRUVpXeuSzn0Qw_fY-102">
          <mxGeometry y="26" width="160" height="26" as="geometry" />
        </mxCell>
        <mxCell id="kvejRUVpXeuSzn0Qw_fY-104" value="" style="line;strokeWidth=1;fillColor=none;align=left;verticalAlign=middle;spacingTop=-1;spacingLeft=3;spacingRight=3;rotatable=0;labelPosition=right;points=[];portConstraint=eastwest;strokeColor=inherit;" vertex="1" parent="kvejRUVpXeuSzn0Qw_fY-102">
          <mxGeometry y="52" width="160" height="8" as="geometry" />
        </mxCell>
        <mxCell id="kvejRUVpXeuSzn0Qw_fY-105" value="+ method(type): type" style="text;strokeColor=none;fillColor=none;align=left;verticalAlign=top;spacingLeft=4;spacingRight=4;overflow=hidden;rotatable=0;points=[[0,0.5],[1,0.5]];portConstraint=eastwest;whiteSpace=wrap;html=1;" vertex="1" parent="kvejRUVpXeuSzn0Qw_fY-102">
          <mxGeometry y="60" width="160" height="26" as="geometry" />
        </mxCell>
        <mxCell id="kvejRUVpXeuSzn0Qw_fY-106" value="Product" style="swimlane;fontStyle=1;align=center;verticalAlign=top;childLayout=stackLayout;horizontal=1;startSize=26;horizontalStack=0;resizeParent=1;resizeParentMax=0;resizeLast=0;collapsible=1;marginBottom=0;whiteSpace=wrap;html=1;" vertex="1" parent="1">
          <mxGeometry x="983" y="1180" width="160" height="86" as="geometry" />
        </mxCell>
        <mxCell id="kvejRUVpXeuSzn0Qw_fY-107" value="+ field: type" style="text;strokeColor=none;fillColor=none;align=left;verticalAlign=top;spacingLeft=4;spacingRight=4;overflow=hidden;rotatable=0;points=[[0,0.5],[1,0.5]];portConstraint=eastwest;whiteSpace=wrap;html=1;" vertex="1" parent="kvejRUVpXeuSzn0Qw_fY-106">
          <mxGeometry y="26" width="160" height="26" as="geometry" />
        </mxCell>
        <mxCell id="kvejRUVpXeuSzn0Qw_fY-108" value="" style="line;strokeWidth=1;fillColor=none;align=left;verticalAlign=middle;spacingTop=-1;spacingLeft=3;spacingRight=3;rotatable=0;labelPosition=right;points=[];portConstraint=eastwest;strokeColor=inherit;" vertex="1" parent="kvejRUVpXeuSzn0Qw_fY-106">
          <mxGeometry y="52" width="160" height="8" as="geometry" />
        </mxCell>
        <mxCell id="kvejRUVpXeuSzn0Qw_fY-109" value="+ method(type): type" style="text;strokeColor=none;fillColor=none;align=left;verticalAlign=top;spacingLeft=4;spacingRight=4;overflow=hidden;rotatable=0;points=[[0,0.5],[1,0.5]];portConstraint=eastwest;whiteSpace=wrap;html=1;" vertex="1" parent="kvejRUVpXeuSzn0Qw_fY-106">
          <mxGeometry y="60" width="160" height="26" as="geometry" />
        </mxCell>
        <mxCell id="kvejRUVpXeuSzn0Qw_fY-110" value="주문" style="text;html=1;align=center;verticalAlign=middle;resizable=0;points=[];autosize=1;strokeColor=none;fillColor=none;" vertex="1" parent="1">
          <mxGeometry x="854" y="1180" width="50" height="30" as="geometry" />
        </mxCell>
        <mxCell id="kvejRUVpXeuSzn0Qw_fY-111" value="주문자" style="text;html=1;align=center;verticalAlign=middle;resizable=0;points=[];autosize=1;strokeColor=none;fillColor=none;" vertex="1" parent="1">
          <mxGeometry x="774" y="1198" width="60" height="30" as="geometry" />
        </mxCell>
        <mxCell id="kvejRUVpXeuSzn0Qw_fY-112" value="제품" style="text;html=1;align=center;verticalAlign=middle;resizable=0;points=[];autosize=1;strokeColor=none;fillColor=none;" vertex="1" parent="1">
          <mxGeometry x="919" y="1198" width="50" height="30" as="geometry" />
        </mxCell>
        <mxCell id="kvejRUVpXeuSzn0Qw_fY-113" value="0...*" style="text;html=1;align=center;verticalAlign=middle;resizable=0;points=[];autosize=1;strokeColor=none;fillColor=none;" vertex="1" parent="1">
          <mxGeometry x="783" y="1220" width="40" height="30" as="geometry" />
        </mxCell>
        <mxCell id="kvejRUVpXeuSzn0Qw_fY-114" value="0...*" style="text;html=1;align=center;verticalAlign=middle;resizable=0;points=[];autosize=1;strokeColor=none;fillColor=none;" vertex="1" parent="1">
          <mxGeometry x="924" y="1220" width="40" height="30" as="geometry" />
        </mxCell>
        <mxCell id="kvejRUVpXeuSzn0Qw_fY-115" value="주문자 한명당 제품을 구매를 안할 수도 있고 여러개를 구매할 수 도 있다." style="text;html=1;align=center;verticalAlign=middle;resizable=0;points=[];autosize=1;strokeColor=none;fillColor=none;" vertex="1" parent="1">
          <mxGeometry x="699" y="1266" width="410" height="30" as="geometry" />
        </mxCell>
        <mxCell id="kvejRUVpXeuSzn0Qw_fY-116" value="제품 한개당 고객 0명 일 수 도 있고 여러명일 수 있다." style="text;html=1;align=center;verticalAlign=middle;resizable=0;points=[];autosize=1;strokeColor=none;fillColor=none;" vertex="1" parent="1">
          <mxGeometry x="749" y="1290" width="310" height="30" as="geometry" />
        </mxCell>
        <mxCell id="kvejRUVpXeuSzn0Qw_fY-117" value="" style="edgeStyle=orthogonalEdgeStyle;rounded=0;orthogonalLoop=1;jettySize=auto;html=1;" edge="1" source="kvejRUVpXeuSzn0Qw_fY-118" target="kvejRUVpXeuSzn0Qw_fY-123" parent="1">
          <mxGeometry relative="1" as="geometry" />
        </mxCell>
        <mxCell id="kvejRUVpXeuSzn0Qw_fY-118" value="Customer" style="swimlane;fontStyle=1;align=center;verticalAlign=top;childLayout=stackLayout;horizontal=1;startSize=26;horizontalStack=0;resizeParent=1;resizeParentMax=0;resizeLast=0;collapsible=1;marginBottom=0;whiteSpace=wrap;html=1;" vertex="1" parent="1">
          <mxGeometry x="609" y="1370" width="160" height="86" as="geometry" />
        </mxCell>
        <mxCell id="kvejRUVpXeuSzn0Qw_fY-119" value="+ field: type" style="text;strokeColor=none;fillColor=none;align=left;verticalAlign=top;spacingLeft=4;spacingRight=4;overflow=hidden;rotatable=0;points=[[0,0.5],[1,0.5]];portConstraint=eastwest;whiteSpace=wrap;html=1;" vertex="1" parent="kvejRUVpXeuSzn0Qw_fY-118">
          <mxGeometry y="26" width="160" height="26" as="geometry" />
        </mxCell>
        <mxCell id="kvejRUVpXeuSzn0Qw_fY-120" value="" style="line;strokeWidth=1;fillColor=none;align=left;verticalAlign=middle;spacingTop=-1;spacingLeft=3;spacingRight=3;rotatable=0;labelPosition=right;points=[];portConstraint=eastwest;strokeColor=inherit;" vertex="1" parent="kvejRUVpXeuSzn0Qw_fY-118">
          <mxGeometry y="52" width="160" height="8" as="geometry" />
        </mxCell>
        <mxCell id="kvejRUVpXeuSzn0Qw_fY-121" value="+ method(type): type" style="text;strokeColor=none;fillColor=none;align=left;verticalAlign=top;spacingLeft=4;spacingRight=4;overflow=hidden;rotatable=0;points=[[0,0.5],[1,0.5]];portConstraint=eastwest;whiteSpace=wrap;html=1;" vertex="1" parent="kvejRUVpXeuSzn0Qw_fY-118">
          <mxGeometry y="60" width="160" height="26" as="geometry" />
        </mxCell>
        <mxCell id="kvejRUVpXeuSzn0Qw_fY-122" value="" style="edgeStyle=orthogonalEdgeStyle;rounded=0;orthogonalLoop=1;jettySize=auto;html=1;" edge="1" source="kvejRUVpXeuSzn0Qw_fY-123" target="kvejRUVpXeuSzn0Qw_fY-127" parent="1">
          <mxGeometry relative="1" as="geometry" />
        </mxCell>
        <mxCell id="kvejRUVpXeuSzn0Qw_fY-123" value="Order" style="swimlane;fontStyle=1;align=center;verticalAlign=top;childLayout=stackLayout;horizontal=1;startSize=26;horizontalStack=0;resizeParent=1;resizeParentMax=0;resizeLast=0;collapsible=1;marginBottom=0;whiteSpace=wrap;html=1;" vertex="1" parent="1">
          <mxGeometry x="849" y="1370" width="160" height="86" as="geometry" />
        </mxCell>
        <mxCell id="kvejRUVpXeuSzn0Qw_fY-124" value="+ field: type" style="text;strokeColor=none;fillColor=none;align=left;verticalAlign=top;spacingLeft=4;spacingRight=4;overflow=hidden;rotatable=0;points=[[0,0.5],[1,0.5]];portConstraint=eastwest;whiteSpace=wrap;html=1;" vertex="1" parent="kvejRUVpXeuSzn0Qw_fY-123">
          <mxGeometry y="26" width="160" height="26" as="geometry" />
        </mxCell>
        <mxCell id="kvejRUVpXeuSzn0Qw_fY-125" value="" style="line;strokeWidth=1;fillColor=none;align=left;verticalAlign=middle;spacingTop=-1;spacingLeft=3;spacingRight=3;rotatable=0;labelPosition=right;points=[];portConstraint=eastwest;strokeColor=inherit;" vertex="1" parent="kvejRUVpXeuSzn0Qw_fY-123">
          <mxGeometry y="52" width="160" height="8" as="geometry" />
        </mxCell>
        <mxCell id="kvejRUVpXeuSzn0Qw_fY-126" value="+ method(type): type" style="text;strokeColor=none;fillColor=none;align=left;verticalAlign=top;spacingLeft=4;spacingRight=4;overflow=hidden;rotatable=0;points=[[0,0.5],[1,0.5]];portConstraint=eastwest;whiteSpace=wrap;html=1;" vertex="1" parent="kvejRUVpXeuSzn0Qw_fY-123">
          <mxGeometry y="60" width="160" height="26" as="geometry" />
        </mxCell>
        <mxCell id="kvejRUVpXeuSzn0Qw_fY-127" value="Product" style="swimlane;fontStyle=1;align=center;verticalAlign=top;childLayout=stackLayout;horizontal=1;startSize=26;horizontalStack=0;resizeParent=1;resizeParentMax=0;resizeLast=0;collapsible=1;marginBottom=0;whiteSpace=wrap;html=1;" vertex="1" parent="1">
          <mxGeometry x="1089" y="1370" width="160" height="86" as="geometry" />
        </mxCell>
        <mxCell id="kvejRUVpXeuSzn0Qw_fY-128" value="+ field: type" style="text;strokeColor=none;fillColor=none;align=left;verticalAlign=top;spacingLeft=4;spacingRight=4;overflow=hidden;rotatable=0;points=[[0,0.5],[1,0.5]];portConstraint=eastwest;whiteSpace=wrap;html=1;" vertex="1" parent="kvejRUVpXeuSzn0Qw_fY-127">
          <mxGeometry y="26" width="160" height="26" as="geometry" />
        </mxCell>
        <mxCell id="kvejRUVpXeuSzn0Qw_fY-129" value="" style="line;strokeWidth=1;fillColor=none;align=left;verticalAlign=middle;spacingTop=-1;spacingLeft=3;spacingRight=3;rotatable=0;labelPosition=right;points=[];portConstraint=eastwest;strokeColor=inherit;" vertex="1" parent="kvejRUVpXeuSzn0Qw_fY-127">
          <mxGeometry y="52" width="160" height="8" as="geometry" />
        </mxCell>
        <mxCell id="kvejRUVpXeuSzn0Qw_fY-130" value="+ method(type): type" style="text;strokeColor=none;fillColor=none;align=left;verticalAlign=top;spacingLeft=4;spacingRight=4;overflow=hidden;rotatable=0;points=[[0,0.5],[1,0.5]];portConstraint=eastwest;whiteSpace=wrap;html=1;" vertex="1" parent="kvejRUVpXeuSzn0Qw_fY-127">
          <mxGeometry y="60" width="160" height="26" as="geometry" />
        </mxCell>
        <mxCell id="kvejRUVpXeuSzn0Qw_fY-131" value="1" style="text;html=1;align=center;verticalAlign=middle;resizable=0;points=[];autosize=1;strokeColor=none;fillColor=none;" vertex="1" parent="1">
          <mxGeometry x="765" y="1408" width="30" height="30" as="geometry" />
        </mxCell>
        <mxCell id="kvejRUVpXeuSzn0Qw_fY-132" value="0...&lt;span style=&quot;background-color: transparent; color: light-dark(rgb(0, 0, 0), rgb(255, 255, 255));&quot;&gt;*&lt;/span&gt;" style="text;html=1;align=center;verticalAlign=middle;resizable=0;points=[];autosize=1;strokeColor=none;fillColor=none;" vertex="1" parent="1">
          <mxGeometry x="809" y="1408" width="40" height="30" as="geometry" />
        </mxCell>
        <mxCell id="kvejRUVpXeuSzn0Qw_fY-133" value="0...&lt;span style=&quot;background-color: transparent; color: light-dark(rgb(0, 0, 0), rgb(255, 255, 255));&quot;&gt;*&lt;/span&gt;" style="text;html=1;align=center;verticalAlign=middle;resizable=0;points=[];autosize=1;strokeColor=none;fillColor=none;" vertex="1" parent="1">
          <mxGeometry x="1006" y="1408" width="40" height="30" as="geometry" />
        </mxCell>
        <mxCell id="kvejRUVpXeuSzn0Qw_fY-134" value="1" style="text;html=1;align=center;verticalAlign=middle;resizable=0;points=[];autosize=1;strokeColor=none;fillColor=none;" vertex="1" parent="1">
          <mxGeometry x="1060" y="1408" width="30" height="30" as="geometry" />
        </mxCell>
        <mxCell id="kvejRUVpXeuSzn0Qw_fY-135" value="" style="shape=image;verticalLabelPosition=bottom;labelBackgroundColor=default;verticalAlign=top;aspect=fixed;imageAspect=0;image=https://blog.kakaocdn.net/dn/bsBlWi/btqC5ooIJ3H/XWDaV4AKiOJ7mnkk4UToU0/img.png;" vertex="1" parent="1">
          <mxGeometry x="-31.69" y="120" width="583.05" height="430" as="geometry" />
        </mxCell>
        <mxCell id="kvejRUVpXeuSzn0Qw_fY-136" value="연관 관계(Association)" style="text;align=left;verticalAlign=middle;resizable=0;points=[];autosize=1;strokeColor=none;fillColor=none;" vertex="1" parent="1">
          <mxGeometry x="608" y="210" width="140" height="30" as="geometry" />
        </mxCell>
        <mxCell id="kvejRUVpXeuSzn0Qw_fY-140" value="표시 : 실선이나 화살표&#xa;설명 : 클래스들이 개념상 서로 연결됐음을 나타낸다. &#xa;          보통은 한 클래스가 다른 클래스에서 제공하는 기능을 사용하는 상황일 때 표시한다." style="text;align=left;verticalAlign=middle;resizable=0;points=[];autosize=1;strokeColor=none;fillColor=none;spacingTop=0;spacingLeft=0;" vertex="1" parent="1">
          <mxGeometry x="608" y="245" width="500" height="50" as="geometry" />
        </mxCell>
        <mxCell id="kvejRUVpXeuSzn0Qw_fY-142" value="Person" style="swimlane;fontStyle=1;align=center;verticalAlign=top;childLayout=stackLayout;horizontal=1;startSize=26;horizontalStack=0;resizeParent=1;resizeParentMax=0;resizeLast=0;collapsible=1;marginBottom=0;whiteSpace=wrap;html=1;" vertex="1" parent="1">
          <mxGeometry x="1400" y="360" width="160" height="86" as="geometry" />
        </mxCell>
        <mxCell id="kvejRUVpXeuSzn0Qw_fY-143" value="+ field: type" style="text;strokeColor=none;fillColor=none;align=left;verticalAlign=top;spacingLeft=4;spacingRight=4;overflow=hidden;rotatable=0;points=[[0,0.5],[1,0.5]];portConstraint=eastwest;whiteSpace=wrap;html=1;" vertex="1" parent="kvejRUVpXeuSzn0Qw_fY-142">
          <mxGeometry y="26" width="160" height="26" as="geometry" />
        </mxCell>
        <mxCell id="kvejRUVpXeuSzn0Qw_fY-144" value="" style="line;strokeWidth=1;fillColor=none;align=left;verticalAlign=middle;spacingTop=-1;spacingLeft=3;spacingRight=3;rotatable=0;labelPosition=right;points=[];portConstraint=eastwest;strokeColor=inherit;" vertex="1" parent="kvejRUVpXeuSzn0Qw_fY-142">
          <mxGeometry y="52" width="160" height="8" as="geometry" />
        </mxCell>
        <mxCell id="kvejRUVpXeuSzn0Qw_fY-145" value="+ method(type): type" style="text;strokeColor=none;fillColor=none;align=left;verticalAlign=top;spacingLeft=4;spacingRight=4;overflow=hidden;rotatable=0;points=[[0,0.5],[1,0.5]];portConstraint=eastwest;whiteSpace=wrap;html=1;" vertex="1" parent="kvejRUVpXeuSzn0Qw_fY-142">
          <mxGeometry y="60" width="160" height="26" as="geometry" />
        </mxCell>
        <mxCell id="kvejRUVpXeuSzn0Qw_fY-146" value="[의존] 사람이 자동차를 이용(의존)해서 이동한다&#xa;이용(의존)하는 클래스를 기능적으로만 사용(멤버로 두지않음,잠깐사용)" style="text;align=left;verticalAlign=middle;resizable=0;points=[];autosize=1;strokeColor=none;fillColor=none;fontColor=#000000;" vertex="1" parent="1">
          <mxGeometry x="1400" y="315" width="400" height="40" as="geometry" />
        </mxCell>
        <mxCell id="kvejRUVpXeuSzn0Qw_fY-147" value="Car" style="swimlane;fontStyle=1;align=center;verticalAlign=top;childLayout=stackLayout;horizontal=1;startSize=26;horizontalStack=0;resizeParent=1;resizeParentMax=0;resizeLast=0;collapsible=1;marginBottom=0;whiteSpace=wrap;html=1;" vertex="1" parent="1">
          <mxGeometry x="1759" y="360" width="160" height="86" as="geometry" />
        </mxCell>
        <mxCell id="kvejRUVpXeuSzn0Qw_fY-148" value="+ field: type" style="text;strokeColor=none;fillColor=none;align=left;verticalAlign=top;spacingLeft=4;spacingRight=4;overflow=hidden;rotatable=0;points=[[0,0.5],[1,0.5]];portConstraint=eastwest;whiteSpace=wrap;html=1;" vertex="1" parent="kvejRUVpXeuSzn0Qw_fY-147">
          <mxGeometry y="26" width="160" height="26" as="geometry" />
        </mxCell>
        <mxCell id="kvejRUVpXeuSzn0Qw_fY-149" value="" style="line;strokeWidth=1;fillColor=none;align=left;verticalAlign=middle;spacingTop=-1;spacingLeft=3;spacingRight=3;rotatable=0;labelPosition=right;points=[];portConstraint=eastwest;strokeColor=inherit;" vertex="1" parent="kvejRUVpXeuSzn0Qw_fY-147">
          <mxGeometry y="52" width="160" height="8" as="geometry" />
        </mxCell>
        <mxCell id="kvejRUVpXeuSzn0Qw_fY-150" value="+ method(type): type" style="text;strokeColor=none;fillColor=none;align=left;verticalAlign=top;spacingLeft=4;spacingRight=4;overflow=hidden;rotatable=0;points=[[0,0.5],[1,0.5]];portConstraint=eastwest;whiteSpace=wrap;html=1;" vertex="1" parent="kvejRUVpXeuSzn0Qw_fY-147">
          <mxGeometry y="60" width="160" height="26" as="geometry" />
        </mxCell>
        <mxCell id="kvejRUVpXeuSzn0Qw_fY-158" value="의존 관계(dependency)" style="text;align=left;verticalAlign=middle;resizable=0;points=[];autosize=1;strokeColor=none;fillColor=none;" vertex="1" parent="1">
          <mxGeometry x="1400" y="220" width="150" height="30" as="geometry" />
        </mxCell>
        <mxCell id="kvejRUVpXeuSzn0Qw_fY-161" value="Use" style="endArrow=open;endSize=12;dashed=1;html=1;rounded=0;exitX=1;exitY=0.5;exitDx=0;exitDy=0;entryX=0;entryY=0.5;entryDx=0;entryDy=0;" edge="1" parent="1" source="kvejRUVpXeuSzn0Qw_fY-143" target="kvejRUVpXeuSzn0Qw_fY-148">
          <mxGeometry width="160" relative="1" as="geometry">
            <mxPoint x="1570" y="410" as="sourcePoint" />
            <mxPoint x="1730" y="410" as="targetPoint" />
          </mxGeometry>
        </mxCell>
        <mxCell id="kvejRUVpXeuSzn0Qw_fY-162" value="표시 : 점선 화살표&#xa;설명 : 연관 관계와 같이 한 클래스가 다른 클래스에서 제공하는 기능을 사용할 때 나타낸다.&#xa;          연관 관계와 차이점은 두 클래스의 관계가 한 메서드를 실행하는 동안과 같은, 매우 짧은 시간만 유지된다는 점&#xa;" style="text;align=left;verticalAlign=middle;resizable=0;points=[];autosize=1;strokeColor=none;fillColor=none;" vertex="1" parent="1">
          <mxGeometry x="1400" y="260" width="640" height="60" as="geometry" />
        </mxCell>
        <mxCell id="kvejRUVpXeuSzn0Qw_fY-174" value="3.1 집합관계 - 합성 (composition)&#xa;표시 : 속이 찬 다이아몬드&#xa;설명 : 클래스들 사이의 전체 또는 부분 같은 관계를 나타냅니다. &#xa;전체 객체의 라이프타임과 부분 객체의 라이프 타임이 의존적입니다. &#xa;즉 전체 객체가 사라지면 부분 객체도 함께 사라진다. (라이프 타임 의존적)&#xa; &#xa;A가 D를 멤버 변수로 가지는 동시에 A와 D의 라이프사이클이 같을 때,&#xa;즉, A의 생성자에서 D를 생성할 경우 합성 관계이다.&#xa;더 엄밀히 말하자면 A객체가 사라질 때 , D 객체가 사라져야함.&#xa;" style="text;align=left;verticalAlign=middle;resizable=0;points=[];autosize=1;strokeColor=none;fillColor=none;" vertex="1" parent="1">
          <mxGeometry x="2140" y="135" width="420" height="140" as="geometry" />
        </mxCell>
        <mxCell id="kvejRUVpXeuSzn0Qw_fY-175" value="public class A&#xa;{&#xa;D d;&#xa;public A()&#xa;{&#xa;d = new D();&#xa;System.out.println(&quot;Composition&quot;);&#xa;}&#xa;}&#xa;&#xa;public class D&#xa;{&#xa;&#xa;}&#xa;" style="text;align=left;verticalAlign=middle;resizable=0;points=[];autosize=1;strokeColor=none;fillColor=none;" vertex="1" parent="1">
          <mxGeometry x="2630" y="110" width="210" height="210" as="geometry" />
        </mxCell>
        <mxCell id="kvejRUVpXeuSzn0Qw_fY-185" value="3.2 집합관계 - 집약 (aggregation)&#xa;표시 : 속이 빈 다이아몬드&#xa;설명 : 클래스들 사이의 전체 또는 부분 같은 관계를 나타냅니다. 전체 객체의 라이프타임과 부분 객체의 라이프 타임은 독립적이다.&#xa;즉 전제 객체가 사라져도 부분 객체는 남아있다. (라이프 타임 독립적)&#xa; &#xa;A가 E를 멤버변수로 가지지만, A와 E의 라이프사이클이 다른 경우 집약 관계이다.&#xa;합성 관계와 다른것이 라이프사이클이다. 중점적으로 라이프 싸이클을 봐야함&#xa;합성 관계에서 D클래스는 A의 생성자에서 인스턴스를 직접 생성하지만, E클래스는 기존에 존재하던 인스턴스가 A의 생성자에 파라미터로 들어온다.&#xa;즉 ,D의 인스턴스는 A의 생성과 동시에 생성되서 소멸도 함께할 운명이지만, E의 인스턴스는 A라는 클래스의 인스턴스와 상관없이 독립적으로 존재한다." style="text;align=left;verticalAlign=middle;resizable=0;points=[];autosize=1;strokeColor=none;fillColor=none;" vertex="1" parent="1">
          <mxGeometry x="3010" y="135" width="830" height="140" as="geometry" />
        </mxCell>
        <mxCell id="kvejRUVpXeuSzn0Qw_fY-186" value="public class A &#xa;{&#xa;        E e;&#xa;        public A(E para) &#xa;        {&#xa;            e=para;&#xa;            System.out.println(&quot;Aggregation&quot;);&#xa;        }&#xa;}&#xa; &#xa;public class E &#xa;{&#xa;&#xa;&#xa;}&#xa;" style="text;align=left;verticalAlign=middle;resizable=0;points=[];autosize=1;strokeColor=none;fillColor=none;" vertex="1" parent="1">
          <mxGeometry x="3840" y="90" width="200" height="230" as="geometry" />
        </mxCell>
        <mxCell id="kvejRUVpXeuSzn0Qw_fY-198" value="[집합] 자동차에는 라디오장치가 포함된다" style="text;align=left;verticalAlign=middle;resizable=0;points=[];autosize=1;strokeColor=none;fillColor=none;" vertex="1" parent="1">
          <mxGeometry x="2130" y="300" width="240" height="30" as="geometry" />
        </mxCell>
        <mxCell id="kvejRUVpXeuSzn0Qw_fY-200" value="Car" style="swimlane;fontStyle=1;align=center;verticalAlign=top;childLayout=stackLayout;horizontal=1;startSize=26;horizontalStack=0;resizeParent=1;resizeParentMax=0;resizeLast=0;collapsible=1;marginBottom=0;whiteSpace=wrap;html=1;" vertex="1" parent="1">
          <mxGeometry x="2110" y="360" width="180" height="146" as="geometry" />
        </mxCell>
        <mxCell id="kvejRUVpXeuSzn0Qw_fY-210" value="+ radio: Radio" style="text;strokeColor=none;fillColor=none;align=left;verticalAlign=top;spacingLeft=4;spacingRight=4;overflow=hidden;rotatable=0;points=[[0,0.5],[1,0.5]];portConstraint=eastwest;whiteSpace=wrap;html=1;" vertex="1" parent="kvejRUVpXeuSzn0Qw_fY-200">
          <mxGeometry y="26" width="180" height="26" as="geometry" />
        </mxCell>
        <mxCell id="kvejRUVpXeuSzn0Qw_fY-201" value="+ 포트1: 충전 Port" style="text;strokeColor=none;fillColor=none;align=left;verticalAlign=top;spacingLeft=4;spacingRight=4;overflow=hidden;rotatable=0;points=[[0,0.5],[1,0.5]];portConstraint=eastwest;whiteSpace=wrap;html=1;" vertex="1" parent="kvejRUVpXeuSzn0Qw_fY-200">
          <mxGeometry y="52" width="180" height="26" as="geometry" />
        </mxCell>
        <mxCell id="kvejRUVpXeuSzn0Qw_fY-202" value="" style="line;strokeWidth=1;fillColor=none;align=left;verticalAlign=middle;spacingTop=-1;spacingLeft=3;spacingRight=3;rotatable=0;labelPosition=right;points=[];portConstraint=eastwest;strokeColor=inherit;" vertex="1" parent="kvejRUVpXeuSzn0Qw_fY-200">
          <mxGeometry y="78" width="180" height="8" as="geometry" />
        </mxCell>
        <mxCell id="kvejRUVpXeuSzn0Qw_fY-203" value="+ Car(){&lt;div&gt;&lt;span style=&quot;text-wrap: nowrap;&quot;&gt;&lt;span style=&quot;white-space: pre;&quot;&gt;&#x9;&lt;/span&gt;radio = new Radio();&lt;/span&gt;&lt;/div&gt;&lt;div&gt;&lt;span style=&quot;text-wrap: nowrap;&quot;&gt;&lt;span style=&quot;white-space: pre;&quot;&gt;&#x9;&lt;/span&gt;포트1 = new 충전Port();&lt;br&gt;&lt;/span&gt;&lt;div style=&quot;text-wrap: nowrap;&quot;&gt;}&lt;/div&gt;&lt;/div&gt;" style="text;strokeColor=none;fillColor=none;align=left;verticalAlign=top;spacingLeft=4;spacingRight=4;overflow=hidden;rotatable=0;points=[[0,0.5],[1,0.5]];portConstraint=eastwest;whiteSpace=wrap;html=1;" vertex="1" parent="kvejRUVpXeuSzn0Qw_fY-200">
          <mxGeometry y="86" width="180" height="60" as="geometry" />
        </mxCell>
        <mxCell id="kvejRUVpXeuSzn0Qw_fY-204" value="Radio" style="swimlane;fontStyle=1;align=center;verticalAlign=top;childLayout=stackLayout;horizontal=1;startSize=26;horizontalStack=0;resizeParent=1;resizeParentMax=0;resizeLast=0;collapsible=1;marginBottom=0;whiteSpace=wrap;html=1;" vertex="1" parent="1">
          <mxGeometry x="2450" y="385" width="160" height="86" as="geometry" />
        </mxCell>
        <mxCell id="kvejRUVpXeuSzn0Qw_fY-205" value="+ field: type" style="text;strokeColor=none;fillColor=none;align=left;verticalAlign=top;spacingLeft=4;spacingRight=4;overflow=hidden;rotatable=0;points=[[0,0.5],[1,0.5]];portConstraint=eastwest;whiteSpace=wrap;html=1;" vertex="1" parent="kvejRUVpXeuSzn0Qw_fY-204">
          <mxGeometry y="26" width="160" height="26" as="geometry" />
        </mxCell>
        <mxCell id="kvejRUVpXeuSzn0Qw_fY-206" value="" style="line;strokeWidth=1;fillColor=none;align=left;verticalAlign=middle;spacingTop=-1;spacingLeft=3;spacingRight=3;rotatable=0;labelPosition=right;points=[];portConstraint=eastwest;strokeColor=inherit;" vertex="1" parent="kvejRUVpXeuSzn0Qw_fY-204">
          <mxGeometry y="52" width="160" height="8" as="geometry" />
        </mxCell>
        <mxCell id="kvejRUVpXeuSzn0Qw_fY-207" value="+ method(type): type" style="text;strokeColor=none;fillColor=none;align=left;verticalAlign=top;spacingLeft=4;spacingRight=4;overflow=hidden;rotatable=0;points=[[0,0.5],[1,0.5]];portConstraint=eastwest;whiteSpace=wrap;html=1;" vertex="1" parent="kvejRUVpXeuSzn0Qw_fY-204">
          <mxGeometry y="60" width="160" height="26" as="geometry" />
        </mxCell>
        <mxCell id="kvejRUVpXeuSzn0Qw_fY-209" value="" style="endArrow=diamondThin;endFill=1;endSize=24;html=1;rounded=0;entryX=1.006;entryY=0.181;entryDx=0;entryDy=0;entryPerimeter=0;exitX=0.006;exitY=-0.154;exitDx=0;exitDy=0;exitPerimeter=0;edgeStyle=orthogonalEdgeStyle;" edge="1" source="kvejRUVpXeuSzn0Qw_fY-207" target="kvejRUVpXeuSzn0Qw_fY-203" parent="1">
          <mxGeometry width="160" relative="1" as="geometry">
            <mxPoint x="2329" y="414.5" as="sourcePoint" />
            <mxPoint x="2489" y="414.5" as="targetPoint" />
          </mxGeometry>
        </mxCell>
        <mxCell id="kvejRUVpXeuSzn0Qw_fY-211" value="충전Port" style="swimlane;fontStyle=1;align=center;verticalAlign=top;childLayout=stackLayout;horizontal=1;startSize=26;horizontalStack=0;resizeParent=1;resizeParentMax=0;resizeLast=0;collapsible=1;marginBottom=0;whiteSpace=wrap;html=1;" vertex="1" parent="1">
          <mxGeometry x="2120" y="600" width="160" height="86" as="geometry" />
        </mxCell>
        <mxCell id="kvejRUVpXeuSzn0Qw_fY-212" value="+ field: type" style="text;strokeColor=none;fillColor=none;align=left;verticalAlign=top;spacingLeft=4;spacingRight=4;overflow=hidden;rotatable=0;points=[[0,0.5],[1,0.5]];portConstraint=eastwest;whiteSpace=wrap;html=1;" vertex="1" parent="kvejRUVpXeuSzn0Qw_fY-211">
          <mxGeometry y="26" width="160" height="26" as="geometry" />
        </mxCell>
        <mxCell id="kvejRUVpXeuSzn0Qw_fY-213" value="" style="line;strokeWidth=1;fillColor=none;align=left;verticalAlign=middle;spacingTop=-1;spacingLeft=3;spacingRight=3;rotatable=0;labelPosition=right;points=[];portConstraint=eastwest;strokeColor=inherit;" vertex="1" parent="kvejRUVpXeuSzn0Qw_fY-211">
          <mxGeometry y="52" width="160" height="8" as="geometry" />
        </mxCell>
        <mxCell id="kvejRUVpXeuSzn0Qw_fY-214" value="+ method(type): type" style="text;strokeColor=none;fillColor=none;align=left;verticalAlign=top;spacingLeft=4;spacingRight=4;overflow=hidden;rotatable=0;points=[[0,0.5],[1,0.5]];portConstraint=eastwest;whiteSpace=wrap;html=1;" vertex="1" parent="kvejRUVpXeuSzn0Qw_fY-211">
          <mxGeometry y="60" width="160" height="26" as="geometry" />
        </mxCell>
        <mxCell id="kvejRUVpXeuSzn0Qw_fY-216" value="" style="endArrow=diamondThin;endFill=1;endSize=24;html=1;rounded=0;entryX=0.496;entryY=0.978;entryDx=0;entryDy=0;entryPerimeter=0;exitX=0.5;exitY=0;exitDx=0;exitDy=0;edgeStyle=orthogonalEdgeStyle;" edge="1" parent="1" source="kvejRUVpXeuSzn0Qw_fY-211" target="kvejRUVpXeuSzn0Qw_fY-203">
          <mxGeometry width="160" relative="1" as="geometry">
            <mxPoint x="2470" y="495" as="sourcePoint" />
            <mxPoint x="2270" y="520" as="targetPoint" />
            <Array as="points">
              <mxPoint x="2200" y="505" />
            </Array>
          </mxGeometry>
        </mxCell>
        <mxCell id="kvejRUVpXeuSzn0Qw_fY-217" value="[집합] 자동차에는 충전 포트가 포함된다" style="text;align=left;verticalAlign=middle;resizable=0;points=[];autosize=1;strokeColor=none;fillColor=none;" vertex="1" parent="1">
          <mxGeometry x="2130" y="320" width="240" height="30" as="geometry" />
        </mxCell>
        <mxCell id="kvejRUVpXeuSzn0Qw_fY-219" value="[집합] 자동차에는 라디오장치가 포함된다" style="text;align=left;verticalAlign=middle;resizable=0;points=[];autosize=1;strokeColor=none;fillColor=none;" vertex="1" parent="1">
          <mxGeometry x="3030" y="300" width="240" height="30" as="geometry" />
        </mxCell>
        <mxCell id="kvejRUVpXeuSzn0Qw_fY-220" value="Car" style="swimlane;fontStyle=1;align=center;verticalAlign=top;childLayout=stackLayout;horizontal=1;startSize=26;horizontalStack=0;resizeParent=1;resizeParentMax=0;resizeLast=0;collapsible=1;marginBottom=0;whiteSpace=wrap;html=1;" vertex="1" parent="1">
          <mxGeometry x="3010" y="360" width="180" height="146" as="geometry" />
        </mxCell>
        <mxCell id="kvejRUVpXeuSzn0Qw_fY-221" value="+ radio: Radio" style="text;strokeColor=none;fillColor=none;align=left;verticalAlign=top;spacingLeft=4;spacingRight=4;overflow=hidden;rotatable=0;points=[[0,0.5],[1,0.5]];portConstraint=eastwest;whiteSpace=wrap;html=1;" vertex="1" parent="kvejRUVpXeuSzn0Qw_fY-220">
          <mxGeometry y="26" width="180" height="26" as="geometry" />
        </mxCell>
        <mxCell id="kvejRUVpXeuSzn0Qw_fY-222" value="+ 포트1: 충전 Port" style="text;strokeColor=none;fillColor=none;align=left;verticalAlign=top;spacingLeft=4;spacingRight=4;overflow=hidden;rotatable=0;points=[[0,0.5],[1,0.5]];portConstraint=eastwest;whiteSpace=wrap;html=1;" vertex="1" parent="kvejRUVpXeuSzn0Qw_fY-220">
          <mxGeometry y="52" width="180" height="26" as="geometry" />
        </mxCell>
        <mxCell id="kvejRUVpXeuSzn0Qw_fY-223" value="" style="line;strokeWidth=1;fillColor=none;align=left;verticalAlign=middle;spacingTop=-1;spacingLeft=3;spacingRight=3;rotatable=0;labelPosition=right;points=[];portConstraint=eastwest;strokeColor=inherit;" vertex="1" parent="kvejRUVpXeuSzn0Qw_fY-220">
          <mxGeometry y="78" width="180" height="8" as="geometry" />
        </mxCell>
        <mxCell id="kvejRUVpXeuSzn0Qw_fY-224" value="+ Car(){&lt;div&gt;&lt;span style=&quot;text-wrap: nowrap;&quot;&gt;&lt;span style=&quot;white-space: pre;&quot;&gt;&#x9;&lt;/span&gt;radio = new Radio();&lt;/span&gt;&lt;/div&gt;&lt;div&gt;&lt;span style=&quot;text-wrap: nowrap;&quot;&gt;&lt;span style=&quot;white-space: pre;&quot;&gt;&#x9;&lt;/span&gt;포트1 = new 충전Port();&lt;br&gt;&lt;/span&gt;&lt;div style=&quot;text-wrap: nowrap;&quot;&gt;}&lt;/div&gt;&lt;/div&gt;" style="text;strokeColor=none;fillColor=none;align=left;verticalAlign=top;spacingLeft=4;spacingRight=4;overflow=hidden;rotatable=0;points=[[0,0.5],[1,0.5]];portConstraint=eastwest;whiteSpace=wrap;html=1;" vertex="1" parent="kvejRUVpXeuSzn0Qw_fY-220">
          <mxGeometry y="86" width="180" height="60" as="geometry" />
        </mxCell>
        <mxCell id="kvejRUVpXeuSzn0Qw_fY-225" value="Radio" style="swimlane;fontStyle=1;align=center;verticalAlign=top;childLayout=stackLayout;horizontal=1;startSize=26;horizontalStack=0;resizeParent=1;resizeParentMax=0;resizeLast=0;collapsible=1;marginBottom=0;whiteSpace=wrap;html=1;" vertex="1" parent="1">
          <mxGeometry x="3350" y="385" width="160" height="86" as="geometry" />
        </mxCell>
        <mxCell id="kvejRUVpXeuSzn0Qw_fY-226" value="+ field: type" style="text;strokeColor=none;fillColor=none;align=left;verticalAlign=top;spacingLeft=4;spacingRight=4;overflow=hidden;rotatable=0;points=[[0,0.5],[1,0.5]];portConstraint=eastwest;whiteSpace=wrap;html=1;" vertex="1" parent="kvejRUVpXeuSzn0Qw_fY-225">
          <mxGeometry y="26" width="160" height="26" as="geometry" />
        </mxCell>
        <mxCell id="kvejRUVpXeuSzn0Qw_fY-227" value="" style="line;strokeWidth=1;fillColor=none;align=left;verticalAlign=middle;spacingTop=-1;spacingLeft=3;spacingRight=3;rotatable=0;labelPosition=right;points=[];portConstraint=eastwest;strokeColor=inherit;" vertex="1" parent="kvejRUVpXeuSzn0Qw_fY-225">
          <mxGeometry y="52" width="160" height="8" as="geometry" />
        </mxCell>
        <mxCell id="kvejRUVpXeuSzn0Qw_fY-228" value="+ method(type): type" style="text;strokeColor=none;fillColor=none;align=left;verticalAlign=top;spacingLeft=4;spacingRight=4;overflow=hidden;rotatable=0;points=[[0,0.5],[1,0.5]];portConstraint=eastwest;whiteSpace=wrap;html=1;" vertex="1" parent="kvejRUVpXeuSzn0Qw_fY-225">
          <mxGeometry y="60" width="160" height="26" as="geometry" />
        </mxCell>
        <mxCell id="kvejRUVpXeuSzn0Qw_fY-229" value="" style="endArrow=diamondThin;endFill=1;endSize=24;html=1;rounded=0;entryX=0.991;entryY=0.378;entryDx=0;entryDy=0;entryPerimeter=0;exitX=0.006;exitY=-0.154;exitDx=0;exitDy=0;exitPerimeter=0;edgeStyle=orthogonalEdgeStyle;" edge="1" source="kvejRUVpXeuSzn0Qw_fY-228" target="kvejRUVpXeuSzn0Qw_fY-224" parent="1">
          <mxGeometry width="160" relative="1" as="geometry">
            <mxPoint x="3229" y="414.5" as="sourcePoint" />
            <mxPoint x="3389" y="414.5" as="targetPoint" />
          </mxGeometry>
        </mxCell>
        <mxCell id="kvejRUVpXeuSzn0Qw_fY-230" value="충전Port" style="swimlane;fontStyle=1;align=center;verticalAlign=top;childLayout=stackLayout;horizontal=1;startSize=26;horizontalStack=0;resizeParent=1;resizeParentMax=0;resizeLast=0;collapsible=1;marginBottom=0;whiteSpace=wrap;html=1;" vertex="1" parent="1">
          <mxGeometry x="2990" y="600" width="190" height="150" as="geometry" />
        </mxCell>
        <mxCell id="kvejRUVpXeuSzn0Qw_fY-231" value="+ field: type" style="text;strokeColor=none;fillColor=none;align=left;verticalAlign=top;spacingLeft=4;spacingRight=4;overflow=hidden;rotatable=0;points=[[0,0.5],[1,0.5]];portConstraint=eastwest;whiteSpace=wrap;html=1;" vertex="1" parent="kvejRUVpXeuSzn0Qw_fY-230">
          <mxGeometry y="26" width="190" height="26" as="geometry" />
        </mxCell>
        <mxCell id="kvejRUVpXeuSzn0Qw_fY-232" value="" style="line;strokeWidth=1;fillColor=none;align=left;verticalAlign=middle;spacingTop=-1;spacingLeft=3;spacingRight=3;rotatable=0;labelPosition=right;points=[];portConstraint=eastwest;strokeColor=inherit;" vertex="1" parent="kvejRUVpXeuSzn0Qw_fY-230">
          <mxGeometry y="52" width="190" height="8" as="geometry" />
        </mxCell>
        <mxCell id="kvejRUVpXeuSzn0Qw_fY-233" value="+ connect(Phon phone) : void&lt;div&gt;{&lt;div&gt;&lt;span style=&quot;text-wrap: nowrap;&quot;&gt;&lt;span style=&quot;white-space-collapse: preserve;&quot;&gt;&#x9;&lt;/span&gt;this phone = phone&lt;/span&gt;&lt;/div&gt;&lt;div&gt;&lt;div style=&quot;text-wrap: nowrap;&quot;&gt;}&lt;/div&gt;&lt;/div&gt;&lt;/div&gt;" style="text;strokeColor=none;fillColor=none;align=left;verticalAlign=top;spacingLeft=4;spacingRight=4;overflow=hidden;rotatable=0;points=[[0,0.5],[1,0.5]];portConstraint=eastwest;whiteSpace=wrap;html=1;" vertex="1" parent="kvejRUVpXeuSzn0Qw_fY-230">
          <mxGeometry y="60" width="190" height="90" as="geometry" />
        </mxCell>
        <mxCell id="kvejRUVpXeuSzn0Qw_fY-234" value="" style="endArrow=diamondThin;endFill=1;endSize=24;html=1;rounded=0;entryX=0.496;entryY=0.978;entryDx=0;entryDy=0;entryPerimeter=0;exitX=0.5;exitY=0;exitDx=0;exitDy=0;edgeStyle=orthogonalEdgeStyle;" edge="1" source="kvejRUVpXeuSzn0Qw_fY-230" target="kvejRUVpXeuSzn0Qw_fY-224" parent="1">
          <mxGeometry width="160" relative="1" as="geometry">
            <mxPoint x="3370" y="495" as="sourcePoint" />
            <mxPoint x="3170" y="520" as="targetPoint" />
            <Array as="points">
              <mxPoint x="3100" y="505" />
            </Array>
          </mxGeometry>
        </mxCell>
        <mxCell id="kvejRUVpXeuSzn0Qw_fY-235" value="[집합] 자동차에는 충전 포트가 포함된다" style="text;align=left;verticalAlign=middle;resizable=0;points=[];autosize=1;strokeColor=none;fillColor=none;" vertex="1" parent="1">
          <mxGeometry x="3030" y="320" width="240" height="30" as="geometry" />
        </mxCell>
        <mxCell id="kvejRUVpXeuSzn0Qw_fY-236" value="Phon" style="swimlane;fontStyle=1;align=center;verticalAlign=top;childLayout=stackLayout;horizontal=1;startSize=26;horizontalStack=0;resizeParent=1;resizeParentMax=0;resizeLast=0;collapsible=1;marginBottom=0;whiteSpace=wrap;html=1;" vertex="1" parent="1">
          <mxGeometry x="3350" y="600" width="160" height="86" as="geometry" />
        </mxCell>
        <mxCell id="kvejRUVpXeuSzn0Qw_fY-237" value="+ field: type" style="text;strokeColor=none;fillColor=none;align=left;verticalAlign=top;spacingLeft=4;spacingRight=4;overflow=hidden;rotatable=0;points=[[0,0.5],[1,0.5]];portConstraint=eastwest;whiteSpace=wrap;html=1;" vertex="1" parent="kvejRUVpXeuSzn0Qw_fY-236">
          <mxGeometry y="26" width="160" height="26" as="geometry" />
        </mxCell>
        <mxCell id="kvejRUVpXeuSzn0Qw_fY-238" value="" style="line;strokeWidth=1;fillColor=none;align=left;verticalAlign=middle;spacingTop=-1;spacingLeft=3;spacingRight=3;rotatable=0;labelPosition=right;points=[];portConstraint=eastwest;strokeColor=inherit;" vertex="1" parent="kvejRUVpXeuSzn0Qw_fY-236">
          <mxGeometry y="52" width="160" height="8" as="geometry" />
        </mxCell>
        <mxCell id="kvejRUVpXeuSzn0Qw_fY-239" value="+ method(type): type" style="text;strokeColor=none;fillColor=none;align=left;verticalAlign=top;spacingLeft=4;spacingRight=4;overflow=hidden;rotatable=0;points=[[0,0.5],[1,0.5]];portConstraint=eastwest;whiteSpace=wrap;html=1;" vertex="1" parent="kvejRUVpXeuSzn0Qw_fY-236">
          <mxGeometry y="60" width="160" height="26" as="geometry" />
        </mxCell>
        <mxCell id="kvejRUVpXeuSzn0Qw_fY-241" value="" style="endArrow=diamondThin;endFill=0;endSize=24;html=1;rounded=0;exitX=0;exitY=0.5;exitDx=0;exitDy=0;entryX=1.005;entryY=0.295;entryDx=0;entryDy=0;entryPerimeter=0;edgeStyle=orthogonalEdgeStyle;" edge="1" parent="1" source="kvejRUVpXeuSzn0Qw_fY-237" target="kvejRUVpXeuSzn0Qw_fY-233">
          <mxGeometry width="160" relative="1" as="geometry">
            <mxPoint x="3180" y="673" as="sourcePoint" />
            <mxPoint x="3230" y="780" as="targetPoint" />
          </mxGeometry>
        </mxCell>
        <mxCell id="kvejRUVpXeuSzn0Qw_fY-243" value="[상속] 직원은 사람이다.&#xa;[상속] 정규직은 직원이다.&#xa;[상속] 계약직은 직원이다.&#xa;" style="text;align=left;verticalAlign=middle;resizable=0;points=[];autosize=1;strokeColor=none;fillColor=none;" vertex="1" parent="1">
          <mxGeometry x="4110" y="305" width="160" height="60" as="geometry" />
        </mxCell>
        <mxCell id="kvejRUVpXeuSzn0Qw_fY-244" value="[집약] 휴대폰을 충전포트에 연결한다" style="text;align=left;verticalAlign=middle;resizable=0;points=[];autosize=1;strokeColor=none;fillColor=none;" vertex="1" parent="1">
          <mxGeometry x="3310" y="730" width="220" height="30" as="geometry" />
        </mxCell>
        <mxCell id="kvejRUVpXeuSzn0Qw_fY-245" value="사람" style="swimlane;fontStyle=1;align=center;verticalAlign=top;childLayout=stackLayout;horizontal=1;startSize=26;horizontalStack=0;resizeParent=1;resizeParentMax=0;resizeLast=0;collapsible=1;marginBottom=0;whiteSpace=wrap;html=1;" vertex="1" parent="1">
          <mxGeometry x="4320" y="240" width="160" height="138" as="geometry" />
        </mxCell>
        <mxCell id="kvejRUVpXeuSzn0Qw_fY-246" value="+ name: String" style="text;strokeColor=none;fillColor=none;align=left;verticalAlign=top;spacingLeft=4;spacingRight=4;overflow=hidden;rotatable=0;points=[[0,0.5],[1,0.5]];portConstraint=eastwest;whiteSpace=wrap;html=1;" vertex="1" parent="kvejRUVpXeuSzn0Qw_fY-245">
          <mxGeometry y="26" width="160" height="26" as="geometry" />
        </mxCell>
        <mxCell id="kvejRUVpXeuSzn0Qw_fY-254" value="+ age: int" style="text;strokeColor=none;fillColor=none;align=left;verticalAlign=top;spacingLeft=4;spacingRight=4;overflow=hidden;rotatable=0;points=[[0,0.5],[1,0.5]];portConstraint=eastwest;whiteSpace=wrap;html=1;" vertex="1" parent="kvejRUVpXeuSzn0Qw_fY-245">
          <mxGeometry y="52" width="160" height="26" as="geometry" />
        </mxCell>
        <mxCell id="kvejRUVpXeuSzn0Qw_fY-255" value="+ addr: String" style="text;strokeColor=none;fillColor=none;align=left;verticalAlign=top;spacingLeft=4;spacingRight=4;overflow=hidden;rotatable=0;points=[[0,0.5],[1,0.5]];portConstraint=eastwest;whiteSpace=wrap;html=1;" vertex="1" parent="kvejRUVpXeuSzn0Qw_fY-245">
          <mxGeometry y="78" width="160" height="26" as="geometry" />
        </mxCell>
        <mxCell id="kvejRUVpXeuSzn0Qw_fY-247" value="" style="line;strokeWidth=1;fillColor=none;align=left;verticalAlign=middle;spacingTop=-1;spacingLeft=3;spacingRight=3;rotatable=0;labelPosition=right;points=[];portConstraint=eastwest;strokeColor=inherit;" vertex="1" parent="kvejRUVpXeuSzn0Qw_fY-245">
          <mxGeometry y="104" width="160" height="8" as="geometry" />
        </mxCell>
        <mxCell id="kvejRUVpXeuSzn0Qw_fY-248" value="+ method(type): type" style="text;strokeColor=none;fillColor=none;align=left;verticalAlign=top;spacingLeft=4;spacingRight=4;overflow=hidden;rotatable=0;points=[[0,0.5],[1,0.5]];portConstraint=eastwest;whiteSpace=wrap;html=1;" vertex="1" parent="kvejRUVpXeuSzn0Qw_fY-245">
          <mxGeometry y="112" width="160" height="26" as="geometry" />
        </mxCell>
        <mxCell id="kvejRUVpXeuSzn0Qw_fY-249" value="직원&lt;div&gt;&amp;lt;&amp;lt;abstract&amp;gt;&amp;gt;&lt;/div&gt;" style="swimlane;fontStyle=1;align=center;verticalAlign=top;childLayout=stackLayout;horizontal=1;startSize=40;horizontalStack=0;resizeParent=1;resizeParentMax=0;resizeLast=0;collapsible=1;marginBottom=0;whiteSpace=wrap;html=1;" vertex="1" parent="1">
          <mxGeometry x="4090" y="450" width="160" height="100" as="geometry" />
        </mxCell>
        <mxCell id="kvejRUVpXeuSzn0Qw_fY-250" value="+ field: type" style="text;strokeColor=none;fillColor=none;align=left;verticalAlign=top;spacingLeft=4;spacingRight=4;overflow=hidden;rotatable=0;points=[[0,0.5],[1,0.5]];portConstraint=eastwest;whiteSpace=wrap;html=1;" vertex="1" parent="kvejRUVpXeuSzn0Qw_fY-249">
          <mxGeometry y="40" width="160" height="26" as="geometry" />
        </mxCell>
        <mxCell id="kvejRUVpXeuSzn0Qw_fY-251" value="" style="line;strokeWidth=1;fillColor=none;align=left;verticalAlign=middle;spacingTop=-1;spacingLeft=3;spacingRight=3;rotatable=0;labelPosition=right;points=[];portConstraint=eastwest;strokeColor=inherit;" vertex="1" parent="kvejRUVpXeuSzn0Qw_fY-249">
          <mxGeometry y="66" width="160" height="8" as="geometry" />
        </mxCell>
        <mxCell id="kvejRUVpXeuSzn0Qw_fY-252" value="+ setSalary(type): type" style="text;strokeColor=none;fillColor=none;align=left;verticalAlign=top;spacingLeft=4;spacingRight=4;overflow=hidden;rotatable=0;points=[[0,0.5],[1,0.5]];portConstraint=eastwest;whiteSpace=wrap;html=1;" vertex="1" parent="kvejRUVpXeuSzn0Qw_fY-249">
          <mxGeometry y="74" width="160" height="26" as="geometry" />
        </mxCell>
        <mxCell id="kvejRUVpXeuSzn0Qw_fY-257" value="Extends" style="endArrow=block;endSize=16;endFill=0;html=1;rounded=0;exitX=0.5;exitY=0;exitDx=0;exitDy=0;entryX=0.518;entryY=0.952;entryDx=0;entryDy=0;entryPerimeter=0;" edge="1" parent="1" source="kvejRUVpXeuSzn0Qw_fY-249" target="kvejRUVpXeuSzn0Qw_fY-248">
          <mxGeometry width="160" relative="1" as="geometry">
            <mxPoint x="4230" y="390" as="sourcePoint" />
            <mxPoint x="4390" y="390" as="targetPoint" />
          </mxGeometry>
        </mxCell>
        <mxCell id="kvejRUVpXeuSzn0Qw_fY-258" value="계약직" style="swimlane;fontStyle=1;align=center;verticalAlign=top;childLayout=stackLayout;horizontal=1;startSize=26;horizontalStack=0;resizeParent=1;resizeParentMax=0;resizeLast=0;collapsible=1;marginBottom=0;whiteSpace=wrap;html=1;" vertex="1" parent="1">
          <mxGeometry x="3969" y="630" width="160" height="86" as="geometry" />
        </mxCell>
        <mxCell id="kvejRUVpXeuSzn0Qw_fY-259" value="+ field: type" style="text;strokeColor=none;fillColor=none;align=left;verticalAlign=top;spacingLeft=4;spacingRight=4;overflow=hidden;rotatable=0;points=[[0,0.5],[1,0.5]];portConstraint=eastwest;whiteSpace=wrap;html=1;" vertex="1" parent="kvejRUVpXeuSzn0Qw_fY-258">
          <mxGeometry y="26" width="160" height="26" as="geometry" />
        </mxCell>
        <mxCell id="kvejRUVpXeuSzn0Qw_fY-260" value="" style="line;strokeWidth=1;fillColor=none;align=left;verticalAlign=middle;spacingTop=-1;spacingLeft=3;spacingRight=3;rotatable=0;labelPosition=right;points=[];portConstraint=eastwest;strokeColor=inherit;" vertex="1" parent="kvejRUVpXeuSzn0Qw_fY-258">
          <mxGeometry y="52" width="160" height="8" as="geometry" />
        </mxCell>
        <mxCell id="kvejRUVpXeuSzn0Qw_fY-261" value="+ method(type): type" style="text;strokeColor=none;fillColor=none;align=left;verticalAlign=top;spacingLeft=4;spacingRight=4;overflow=hidden;rotatable=0;points=[[0,0.5],[1,0.5]];portConstraint=eastwest;whiteSpace=wrap;html=1;" vertex="1" parent="kvejRUVpXeuSzn0Qw_fY-258">
          <mxGeometry y="60" width="160" height="26" as="geometry" />
        </mxCell>
        <mxCell id="kvejRUVpXeuSzn0Qw_fY-262" value="정규직" style="swimlane;fontStyle=1;align=center;verticalAlign=top;childLayout=stackLayout;horizontal=1;startSize=26;horizontalStack=0;resizeParent=1;resizeParentMax=0;resizeLast=0;collapsible=1;marginBottom=0;whiteSpace=wrap;html=1;" vertex="1" parent="1">
          <mxGeometry x="4210" y="630" width="160" height="86" as="geometry" />
        </mxCell>
        <mxCell id="kvejRUVpXeuSzn0Qw_fY-263" value="+ field: type" style="text;strokeColor=none;fillColor=none;align=left;verticalAlign=top;spacingLeft=4;spacingRight=4;overflow=hidden;rotatable=0;points=[[0,0.5],[1,0.5]];portConstraint=eastwest;whiteSpace=wrap;html=1;" vertex="1" parent="kvejRUVpXeuSzn0Qw_fY-262">
          <mxGeometry y="26" width="160" height="26" as="geometry" />
        </mxCell>
        <mxCell id="kvejRUVpXeuSzn0Qw_fY-264" value="" style="line;strokeWidth=1;fillColor=none;align=left;verticalAlign=middle;spacingTop=-1;spacingLeft=3;spacingRight=3;rotatable=0;labelPosition=right;points=[];portConstraint=eastwest;strokeColor=inherit;" vertex="1" parent="kvejRUVpXeuSzn0Qw_fY-262">
          <mxGeometry y="52" width="160" height="8" as="geometry" />
        </mxCell>
        <mxCell id="kvejRUVpXeuSzn0Qw_fY-265" value="+ method(type): type" style="text;strokeColor=none;fillColor=none;align=left;verticalAlign=top;spacingLeft=4;spacingRight=4;overflow=hidden;rotatable=0;points=[[0,0.5],[1,0.5]];portConstraint=eastwest;whiteSpace=wrap;html=1;" vertex="1" parent="kvejRUVpXeuSzn0Qw_fY-262">
          <mxGeometry y="60" width="160" height="26" as="geometry" />
        </mxCell>
        <mxCell id="kvejRUVpXeuSzn0Qw_fY-266" value="" style="endArrow=block;dashed=1;endFill=0;endSize=12;html=1;rounded=0;exitX=0.5;exitY=0;exitDx=0;exitDy=0;entryX=0.525;entryY=1.047;entryDx=0;entryDy=0;entryPerimeter=0;" edge="1" parent="1" source="kvejRUVpXeuSzn0Qw_fY-258" target="kvejRUVpXeuSzn0Qw_fY-252">
          <mxGeometry width="160" relative="1" as="geometry">
            <mxPoint x="4060" y="570" as="sourcePoint" />
            <mxPoint x="4220" y="570" as="targetPoint" />
          </mxGeometry>
        </mxCell>
        <mxCell id="kvejRUVpXeuSzn0Qw_fY-267" value="" style="endArrow=block;dashed=1;endFill=0;endSize=12;html=1;rounded=0;exitX=0.5;exitY=0;exitDx=0;exitDy=0;entryX=0.54;entryY=1.08;entryDx=0;entryDy=0;entryPerimeter=0;" edge="1" parent="1" source="kvejRUVpXeuSzn0Qw_fY-262" target="kvejRUVpXeuSzn0Qw_fY-252">
          <mxGeometry width="160" relative="1" as="geometry">
            <mxPoint x="4150" y="628.78" as="sourcePoint" />
            <mxPoint x="4275" y="549.78" as="targetPoint" />
          </mxGeometry>
        </mxCell>
        <mxCell id="kvejRUVpXeuSzn0Qw_fY-268" value="학생&lt;div&gt;&amp;lt;&amp;lt;abstract&amp;gt;&amp;gt;&lt;/div&gt;" style="swimlane;fontStyle=1;align=center;verticalAlign=top;childLayout=stackLayout;horizontal=1;startSize=40;horizontalStack=0;resizeParent=1;resizeParentMax=0;resizeLast=0;collapsible=1;marginBottom=0;whiteSpace=wrap;html=1;" vertex="1" parent="1">
          <mxGeometry x="4541" y="450" width="160" height="100" as="geometry" />
        </mxCell>
        <mxCell id="kvejRUVpXeuSzn0Qw_fY-269" value="+ field: type" style="text;strokeColor=none;fillColor=none;align=left;verticalAlign=top;spacingLeft=4;spacingRight=4;overflow=hidden;rotatable=0;points=[[0,0.5],[1,0.5]];portConstraint=eastwest;whiteSpace=wrap;html=1;" vertex="1" parent="kvejRUVpXeuSzn0Qw_fY-268">
          <mxGeometry y="40" width="160" height="26" as="geometry" />
        </mxCell>
        <mxCell id="kvejRUVpXeuSzn0Qw_fY-270" value="" style="line;strokeWidth=1;fillColor=none;align=left;verticalAlign=middle;spacingTop=-1;spacingLeft=3;spacingRight=3;rotatable=0;labelPosition=right;points=[];portConstraint=eastwest;strokeColor=inherit;" vertex="1" parent="kvejRUVpXeuSzn0Qw_fY-268">
          <mxGeometry y="66" width="160" height="8" as="geometry" />
        </mxCell>
        <mxCell id="kvejRUVpXeuSzn0Qw_fY-271" value="+ setSalary(type): type" style="text;strokeColor=none;fillColor=none;align=left;verticalAlign=top;spacingLeft=4;spacingRight=4;overflow=hidden;rotatable=0;points=[[0,0.5],[1,0.5]];portConstraint=eastwest;whiteSpace=wrap;html=1;" vertex="1" parent="kvejRUVpXeuSzn0Qw_fY-268">
          <mxGeometry y="74" width="160" height="26" as="geometry" />
        </mxCell>
        <mxCell id="kvejRUVpXeuSzn0Qw_fY-272" value="단과" style="swimlane;fontStyle=1;align=center;verticalAlign=top;childLayout=stackLayout;horizontal=1;startSize=26;horizontalStack=0;resizeParent=1;resizeParentMax=0;resizeLast=0;collapsible=1;marginBottom=0;whiteSpace=wrap;html=1;" vertex="1" parent="1">
          <mxGeometry x="4420" y="630" width="160" height="86" as="geometry" />
        </mxCell>
        <mxCell id="kvejRUVpXeuSzn0Qw_fY-273" value="+ field: type" style="text;strokeColor=none;fillColor=none;align=left;verticalAlign=top;spacingLeft=4;spacingRight=4;overflow=hidden;rotatable=0;points=[[0,0.5],[1,0.5]];portConstraint=eastwest;whiteSpace=wrap;html=1;" vertex="1" parent="kvejRUVpXeuSzn0Qw_fY-272">
          <mxGeometry y="26" width="160" height="26" as="geometry" />
        </mxCell>
        <mxCell id="kvejRUVpXeuSzn0Qw_fY-274" value="" style="line;strokeWidth=1;fillColor=none;align=left;verticalAlign=middle;spacingTop=-1;spacingLeft=3;spacingRight=3;rotatable=0;labelPosition=right;points=[];portConstraint=eastwest;strokeColor=inherit;" vertex="1" parent="kvejRUVpXeuSzn0Qw_fY-272">
          <mxGeometry y="52" width="160" height="8" as="geometry" />
        </mxCell>
        <mxCell id="kvejRUVpXeuSzn0Qw_fY-275" value="+ method(type): type" style="text;strokeColor=none;fillColor=none;align=left;verticalAlign=top;spacingLeft=4;spacingRight=4;overflow=hidden;rotatable=0;points=[[0,0.5],[1,0.5]];portConstraint=eastwest;whiteSpace=wrap;html=1;" vertex="1" parent="kvejRUVpXeuSzn0Qw_fY-272">
          <mxGeometry y="60" width="160" height="26" as="geometry" />
        </mxCell>
        <mxCell id="kvejRUVpXeuSzn0Qw_fY-276" value="국비" style="swimlane;fontStyle=1;align=center;verticalAlign=top;childLayout=stackLayout;horizontal=1;startSize=26;horizontalStack=0;resizeParent=1;resizeParentMax=0;resizeLast=0;collapsible=1;marginBottom=0;whiteSpace=wrap;html=1;" vertex="1" parent="1">
          <mxGeometry x="4661" y="630" width="160" height="86" as="geometry" />
        </mxCell>
        <mxCell id="kvejRUVpXeuSzn0Qw_fY-277" value="+ field: type" style="text;strokeColor=none;fillColor=none;align=left;verticalAlign=top;spacingLeft=4;spacingRight=4;overflow=hidden;rotatable=0;points=[[0,0.5],[1,0.5]];portConstraint=eastwest;whiteSpace=wrap;html=1;" vertex="1" parent="kvejRUVpXeuSzn0Qw_fY-276">
          <mxGeometry y="26" width="160" height="26" as="geometry" />
        </mxCell>
        <mxCell id="kvejRUVpXeuSzn0Qw_fY-278" value="" style="line;strokeWidth=1;fillColor=none;align=left;verticalAlign=middle;spacingTop=-1;spacingLeft=3;spacingRight=3;rotatable=0;labelPosition=right;points=[];portConstraint=eastwest;strokeColor=inherit;" vertex="1" parent="kvejRUVpXeuSzn0Qw_fY-276">
          <mxGeometry y="52" width="160" height="8" as="geometry" />
        </mxCell>
        <mxCell id="kvejRUVpXeuSzn0Qw_fY-279" value="+ method(type): type" style="text;strokeColor=none;fillColor=none;align=left;verticalAlign=top;spacingLeft=4;spacingRight=4;overflow=hidden;rotatable=0;points=[[0,0.5],[1,0.5]];portConstraint=eastwest;whiteSpace=wrap;html=1;" vertex="1" parent="kvejRUVpXeuSzn0Qw_fY-276">
          <mxGeometry y="60" width="160" height="26" as="geometry" />
        </mxCell>
        <mxCell id="kvejRUVpXeuSzn0Qw_fY-280" value="" style="endArrow=block;dashed=1;endFill=0;endSize=12;html=1;rounded=0;exitX=0.5;exitY=0;exitDx=0;exitDy=0;entryX=0.525;entryY=1.047;entryDx=0;entryDy=0;entryPerimeter=0;" edge="1" source="kvejRUVpXeuSzn0Qw_fY-272" target="kvejRUVpXeuSzn0Qw_fY-271" parent="1">
          <mxGeometry width="160" relative="1" as="geometry">
            <mxPoint x="4511" y="570" as="sourcePoint" />
            <mxPoint x="4671" y="570" as="targetPoint" />
          </mxGeometry>
        </mxCell>
        <mxCell id="kvejRUVpXeuSzn0Qw_fY-281" value="" style="endArrow=block;dashed=1;endFill=0;endSize=12;html=1;rounded=0;exitX=0.5;exitY=0;exitDx=0;exitDy=0;entryX=0.54;entryY=1.08;entryDx=0;entryDy=0;entryPerimeter=0;" edge="1" source="kvejRUVpXeuSzn0Qw_fY-276" target="kvejRUVpXeuSzn0Qw_fY-271" parent="1">
          <mxGeometry width="160" relative="1" as="geometry">
            <mxPoint x="4601" y="628.78" as="sourcePoint" />
            <mxPoint x="4726" y="549.78" as="targetPoint" />
          </mxGeometry>
        </mxCell>
        <mxCell id="kvejRUVpXeuSzn0Qw_fY-282" value="Extends" style="endArrow=block;endSize=16;endFill=0;html=1;rounded=0;exitX=0.5;exitY=0;exitDx=0;exitDy=0;entryX=0.5;entryY=1.077;entryDx=0;entryDy=0;entryPerimeter=0;" edge="1" parent="1" source="kvejRUVpXeuSzn0Qw_fY-268" target="kvejRUVpXeuSzn0Qw_fY-248">
          <mxGeometry width="160" relative="1" as="geometry">
            <mxPoint x="4180" y="460" as="sourcePoint" />
            <mxPoint x="4380" y="500" as="targetPoint" />
          </mxGeometry>
        </mxCell>
        <mxCell id="kvejRUVpXeuSzn0Qw_fY-284" value="4. 일반화 관계(generalization)&#xa;표시 : 속이 빈 화살표&#xa;설명 : 객체지향 개념에서 상속관계라고 말합니다. &#xa;한 클래스가 다른 클래스를 포함하는 상위 개념일 때 이를 IS-A 관계라고 하며 UML에서는 일반화관계로 모델링합니다." style="text;align=left;verticalAlign=middle;resizable=0;points=[];autosize=1;strokeColor=none;fillColor=none;" vertex="1" parent="1">
          <mxGeometry x="4129" y="130" width="650" height="70" as="geometry" />
        </mxCell>
        <mxCell id="kvejRUVpXeuSzn0Qw_fY-285" value="5.실체화 관계(realization)&#xa;표시 : 빈 삼각형과 점선&#xa;설명 : 책임들의 집합인 인터페이스와 이 책임들을 실제로 실현한 클래스들 사이의 관계를 나타냄." style="text;align=left;verticalAlign=middle;resizable=0;points=[];autosize=1;strokeColor=none;fillColor=none;" vertex="1" parent="1">
          <mxGeometry x="4750" y="540" width="540" height="60" as="geometry" />
        </mxCell>
      </root>
    </mxGraphModel>
  </diagram>
</mxfile>
